
<svg display="none" xmlns="http://www.w3.org/2000/svg">

 <symbol id="icon-logo" viewBox="0 0 1000 1000" class="icon-logo" xmlns="http://www.w3.org/2000/svg">
  <path d="M748.11 439.14c-4.59-5.02-14.92-10.18-26.11-13.2-8.32-2.3-26.11-2.44-214.15-2.73-112.74-.14-209.28.29-214.44.86-17.79 2.15-31.7 7.6-38.73 15.06l-3.59 3.87v170.13l3.59 3.87c4.88 5.16 15.06 10.18 26.82 13.34 9.04 2.3 24.96 2.44 219.89 2.44s210.85-.14 219.89-2.44c11.76-3.16 21.95-8.18 26.82-13.34l3.59-3.87V443.01l-3.58-3.87zm-53.08 136.98H307.75v-96.1h387.28v96.1z"/>
  <path d="M996.4 548.15c-14.63 142.72-85.2 267.94-199.24 353.29-25.96 19.36-45.33 31.13-77.03 46.9-71 35.14-140.13 51.21-220.17 51.21s-149.18-16.07-220.18-51.21c-31.7-15.78-51.06-27.54-77.03-46.9-42.89-32.27-77.6-67.56-109.01-111.31l-11.62-16.35 61.68-61.68 10.76 16.21c29.55 44.75 71.15 86.92 114.18 115.75 51.35 34.57 108.15 56.94 169.69 66.56 27.83 4.3 91.37 4.73 118.19.72 110.73-16.5 206.41-72.87 272.96-160.79 45.61-60.24 74.44-133.97 82.05-210.14 1.86-19.08 1.86-61.54 0-80.61-8.03-80.04-39.45-157.21-89.65-220.03-14.77-18.65-44.75-48.63-63.83-63.83-57.23-45.61-122.35-74.3-195.79-86.21-24.1-3.87-74.73-5.31-100.55-2.87-97.11 9.17-184.33 50.34-253.75 119.91-33.56 33.56-57.23 66.41-78.17 109.01-14.2 28.83-20.8 45.47-28.11 72.29-8.18 29.55-14.92 71.86-14.92 92.95v6.17h106.86l-83.19 83.19c-45.76 45.76-83.62 83.19-84.05 83.19-2.44 0-15.06-52.79-19.08-80.47-5.17-34.85-6.89-90.5-3.74-121.77 10.18-100.98 49.2-194.07 113.89-272.39 15.35-18.36 46.76-49.63 65.55-64.98C280.78 33.92 404.71-6.81 527.93.93 680.12 10.4 813.94 83.7 903.74 206.77c51.35 70.28 83.48 155.34 92.66 245.28 2.29 22.09 2.29 74.01 0 96.1z"/>
  <path d="M667.78 540.26c-5.31 10.47-14.49 16.21-25.82 16.21s-20.51-5.74-25.82-16.21c-2.58-5.02-2.44-18.5.43-23.81 3.01-5.88 11.48-13.2 16.5-14.34 2.15-.43 4.59-1 5.31-1.29 2.15-.86 12.48.86 15.78 2.44 4.45 2.29 10.76 8.61 13.34 13.34 2.72 5.16 2.86 18.78.28 23.66z"/>
 </symbol>

  <symbol id="icon-test" viewBox="0 0 32 32">
    <path d="M0.729 10.191c-0.061-0.424-0.098-0.847-0.109-1.269 0-0.008 0-0.015 0-0.023 0.065-3.807 3.485-6.88 7.689-6.88s7.624 3.073 7.689 6.88c0.001 0.037 0.001 0.073 0.001 0.11 0-0.037 0-0.073 0.001-0.11 0.065-3.807 3.485-6.88 7.689-6.88s7.624 3.073 7.689 6.88h0.001c0 0 0.969 6.792-15.38 21.081 0 0-13.875-10.014-15.271-19.79z"></path>
  </symbol>

  <symbol id="icon-home" viewBox="0 0 32 32">
    <path d="M32 15.99v16.010h-2.746v-14.87l-13.254-13.254-13.254 13.254v12.125h10.080v-5.248h6.349v7.994h-19.174v-16.010l16.006-15.99 14.48 14.477z"></path>
  </symbol>

 <symbol id="icon-backup" class="icon-backup" viewBox="0 0 1000 1000" xmlns="http://www.w3.org/2000/svg">
    <path d="M917.8 226.3l-61.18 61.18-10.77-16.22c-29.57-44.79-71.21-87-114.28-115.86-51.4-34.6-108.25-56.99-169.84-66.61-14.88-2.3-39.98-3.5-64.22-3.5h-.99c-8.52-.04-16.69.11-23.89.45h-.04c-11.51.45-21.74 1.22-29.16 2.33C332.6 104.58 236.84 161 170.22 249.01c-20.15 26.63-37.04 55.89-50.26 86.83-8.06 17.87-13.11 32.19-18.55 52.13-1.79 6.47-3.51 13.55-5.11 20.89l-.09.42a411.706 411.706 0 0 0-6.09 33.31c-2.26 15.05-3.64 28.89-3.64 38.41v6.18h106.96l-83.27 83.27c-5.1 5.09-10.1 10.09-14.96 14.94-38.81 38.73-68.79 68.33-69.17 68.33s-1.01-1.29-1.82-3.56v-.01a522.604 522.604 0 0 1-2.94-9.73c-4.78-17.5-11.58-48.27-14.33-67.25-3.57-24.12-5.5-58.19-5.31-87.26 0-.12 0-.24.01-.35.21-13.41.74-25.76 1.6-33.98 4.65-45.32 14.94-88.89 30.46-129.97a304.4 304.4 0 0 1 2.53-6.54c18.23-45.93 43.24-89.1 74.68-128.65.09-.13.19-.25.3-.38 3.76-4.68 7.62-9.3 11.57-13.85.04-.06.09-.11.14-.16 14.88-16.72 37.98-39.64 54.63-54 .53-.46 1.06-.91 1.59-1.36.32-.28.63-.55.95-.8.93-.78 1.84-1.54 2.72-2.26.07-.06.15-.12.22-.18C258.78 51.45 350.26 13.05 444.95 2.51c.17-.02.33-.03.49-.05 17.75-1.81 35.92-2.69 54.7-2.69 8.43 0 16.73.18 24.93.54.96.05 1.92.11 2.88.17 66.5 4.14 129.49 20.45 186.85 47.76.8.38 1.59.77 2.39 1.15 1.11.55 2.22 1.09 3.33 1.64.04.02.07.04.11.05 1.82.91 3.6 1.8 5.34 2.68.82.42 1.63.83 2.43 1.24.94.48 1.87.96 2.79 1.43 67.19 35.15 126.05 85.84 172.91 150.07 4.73 6.48 9.3 13.08 13.7 19.8zM998.46 513.52c0 .12 0 .23-.01.35-.21 13.54-.75 26.03-1.61 34.32-4.32 42.16-13.52 82.8-27.26 121.32-.45 1.25-.9 2.5-1.36 3.74-.53 1.46-1.07 2.91-1.62 4.35-.35.93-.7 1.85-1.06 2.78-18.38 47.63-44.03 92.34-76.53 133.19-.04.05-.08.11-.13.16-3.76 4.68-7.61 9.3-11.57 13.85-.05.05-.09.1-.14.16-14.88 16.72-37.98 39.64-54.63 54-.54.46-1.07.92-1.59 1.36-.32.27-.63.54-.95.8-.93.79-1.84 1.54-2.72 2.26-.07.06-.15.12-.22.18-75.74 61.98-167.22 100.38-261.91 110.92-.17.02-.33.04-.49.05-17.75 1.81-35.92 2.69-54.7 2.69-8.44 0-16.76-.18-24.97-.54-.95-.05-1.9-.11-2.85-.17-66.64-4.14-129.77-20.52-187.22-47.94-.96-.46-1.92-.92-2.87-1.39-.83-.4-1.65-.8-2.47-1.21-1.75-.87-3.46-1.73-5.14-2.57-.85-.43-1.7-.87-2.55-1.31-1-.51-1.99-1.02-2.97-1.53C201.72 908.2 142.87 857.51 96 793.27c-4.73-6.48-9.3-13.08-13.7-19.8l61.18-61.18 10.77 16.22c29.57 44.8 71.21 87.01 114.28 115.86 51.39 34.6 108.25 57 169.84 66.62 14.88 2.3 39.98 3.5 64.22 3.5h.94c8.2.03 16.09-.1 23.09-.42 11.87-.44 22.44-1.22 30.05-2.36 110.83-16.51 206.59-72.94 273.21-160.94 20.19-26.68 37.1-55.99 50.33-87 8.02-17.8 13.05-32.09 18.47-51.97 1.76-6.34 3.45-13.26 5.01-20.44.04-.15.07-.29.1-.44a412.9 412.9 0 0 0 6.16-33.54c.03-.17.05-.34.08-.51 2.22-14.92 3.58-28.65 3.58-38.1v-6.17H806.66l83.27-83.27c5.1-5.1 10.1-10.1 14.96-14.95 38.81-38.73 68.79-68.32 69.17-68.32.38 0 1.01 1.29 1.82 3.56v.01c1.03 3.31 2.04 6.64 3 9.98 4.79 17.54 11.53 48.1 14.27 66.99 3.56 24.03 5.48 57.92 5.31 86.92z"/>
 </symbol>

 <symbol id="icon-restore" class="icon-restore" viewBox="0 0 1000 1000" xmlns="http://www.w3.org/2000/svg">
    <path d="M919 212.1L542.9 588.2l-.1.1h-85.7V1.5h85.8v465.4l315.4-315.5z"/>
    <path d="M542.9 588.2v.1h-.1z"/>
    <path d="M1000.09 499.82c0 18.84-.88 37.07-2.69 54.88-.01.15-.03.31-.05.48-10.54 94.99-48.95 186.75-110.92 262.71-.07.08-.12.17-.19.23-.71.88-1.47 1.8-2.25 2.72-.26.34-.53.65-.8.96-.44.52-.9 1.05-1.36 1.6-11.55 13.43-28.64 31.04-43.57 45.18a496.242 496.242 0 0 1-69.91 53.83c-1.49.94-2.98 1.88-4.48 2.81-1.16.72-2.33 1.43-3.49 2.15-1.34.81-2.67 1.63-4.03 2.42-1.34.81-2.69 1.61-4.04 2.39-2.71 1.58-5.42 3.14-8.16 4.67-2.06 1.15-4.12 2.29-6.19 3.4-1.17.62-2.34 1.25-3.5 1.87-.9.47-1.81.95-2.71 1.42-.35.18-.7.37-1.05.54-.64.33-1.29.66-1.94.99-.85.44-1.7.88-2.56 1.31-1.67.84-3.39 1.7-5.15 2.57-.82.41-1.65.81-2.48 1.22-.94.46-1.91.92-2.88 1.38-35.63 16.95-73.43 29.69-112.88 37.9a520.018 520.018 0 0 1-61.1 9 540 540 0 0 1-18.3 1.19h-.05c-.41.02-.82.03-1.23.04-7.39.32-14.75.5-22.09.51-.35 0-.7.01-1.04 0-.15.01-.31 0-.46 0-1.34 0-2.68 0-4.01-.02-.91 0-1.83-.01-2.74-.03l-2.33-.03c-.14 0-.28 0-.42-.02-2.74-.05-5.48-.13-8.22-.23-1.25-.04-2.49-.09-3.72-.14-1.49-.06-2.99-.13-4.49-.21-1.61-.09-3.21-.18-4.82-.28-2.25-.13-4.5-.29-6.73-.47-1.6-.11-3.19-.25-4.78-.38-1.81-.16-3.62-.31-5.43-.5-1.75-.16-3.49-.34-5.23-.52-3.93-.43-7.86-.9-11.78-1.41-1.39-.18-2.78-.37-4.17-.56-1.72-.24-3.45-.5-5.17-.76-.96-.14-1.91-.29-2.87-.44-.64-.11-1.28-.2-1.91-.3-1.21-.2-2.4-.39-3.6-.6-2.75-.46-5.51-.95-8.26-1.45-1.42-.28-2.84-.54-4.25-.82-1.39-.27-2.77-.55-4.15-.83-1.39-.28-2.77-.57-4.15-.87-1.38-.29-2.76-.6-4.14-.9-4-.89-8-1.83-11.98-2.81-.29-.08-.57-.15-.85-.22-1.21-.31-2.42-.61-3.62-.92-1.37-.35-2.73-.71-4.09-1.08-1.37-.36-2.73-.73-4.08-1.11-1.37-.37-2.72-.75-4.07-1.14-4.07-1.17-8.12-2.39-12.16-3.66-.98-.32-1.97-.64-2.98-.96-.86-.28-1.73-.57-2.61-.85-1.85-.61-3.75-1.25-5.67-1.89-.05-.02-.08-.02-.12-.05-1.18-.39-2.35-.8-3.51-1.2-.84-.3-1.68-.58-2.51-.88-59.24-21.1-114.79-53.68-164.4-97.09-2.9-2.57-5.77-5.17-8.62-7.79-.12-.12-.24-.23-.36-.35-4.41-4.14-8.79-8.38-13.16-12.75a559.487 559.487 0 0 1-21.49-22.69c-.05-.05-.11-.11-.15-.17-1.23-1.38-2.45-2.79-3.67-4.19-2.28-2.63-4.53-5.27-6.74-7.95-.59-.7-1.17-1.41-1.75-2.12l-1.79-2.18c-.3-.38-.6-.75-.89-1.13-2.17-2.67-4.3-5.37-6.4-8.09-1.12-1.46-2.24-2.92-3.35-4.4-1.04-1.36-2.06-2.74-3.08-4.11-.16-.2-.3-.4-.45-.62-1.02-1.37-2.03-2.77-3.04-4.17-1.01-1.4-2.02-2.81-3.01-4.23-.1-.12-.19-.26-.28-.39-1.03-1.46-2.05-2.93-3.06-4.41-.78-1.12-1.55-2.25-2.31-3.39-2.3-3.39-4.55-6.82-6.77-10.28-.08-.12-.16-.24-.23-.37-.75-1.17-1.5-2.36-2.23-3.55-.14-.21-.27-.41-.4-.62-.17-.27-.34-.55-.51-.82-.85-1.37-1.69-2.74-2.52-4.11-.73-1.2-1.45-2.39-2.16-3.6-.25-.44-.51-.88-.77-1.31-.24-.39-.47-.79-.7-1.19-.57-.97-1.13-1.94-1.7-2.92-.79-1.37-1.57-2.74-2.34-4.13-.59-1.02-1.16-2.05-1.74-3.09-.35-.62-.69-1.24-1.04-1.87-.54-1-1.09-1.99-1.62-3-.14-.25-.28-.5-.41-.76-.55-1-1.09-2-1.62-3.01-.36-.69-.71-1.37-1.07-2.06-.5-.94-.99-1.89-1.49-2.84-.82-1.62-1.66-3.24-2.47-4.88a495.668 495.668 0 0 1-5.4-11.09c-.31-.65-.61-1.3-.91-1.95-.48-1.03-.95-2.05-1.42-3.09-.14-.28-.27-.57-.4-.87-.45-.99-.91-1.98-1.35-2.98-.43-.95-.86-1.91-1.28-2.88-.22-.51-.45-1.02-.67-1.52-.56-1.28-1.11-2.56-1.65-3.84-1.47-3.44-2.9-6.89-4.29-10.36-.18-.46-.37-.92-.55-1.38-.58-1.46-1.14-2.9-1.71-4.36-.55-1.41-1.09-2.84-1.63-4.28C14.41 629.73 3.79 579.88.57 527.9c-.06-.97-.13-1.92-.18-2.89-.2-4.63-.34-9.3-.43-14-.05-28.38 1.88-60.92 5.33-84.21 2.66-18.24 9.06-47.37 13.82-65.14.01-.06.02-.12.04-.17 1.28-4.38 2.61-8.75 4-13.1.01-.01.01-.03.01-.04 19.16-59.9 49.68-116.55 90.36-166.41.05-.07.12-.15.18-.23.71-.88 1.48-1.79 2.26-2.72.25-.33.52-.64.8-.96.45-.53.89-1.06 1.35-1.59 5.5-6.4 12.25-13.74 19.43-21.19 20.23-20.4 45.15-42.58 64.39-56.85 15.31-11.41 41.69-28.24 57.49-37.25 3.04-1.68 6.12-3.32 9.19-4.93v-.01c2.18-1.03 3.54-1.5 3.82-1.22.26.27.6 42.34.74 97.16v.21c.02 6.87.03 13.96.04 21.18l.18 117.94-75.85-75.86-4.33 4.32c-.02.01-.03.03-.04.05-4.99 4.99-11.13 12.2-17.65 20.58-.03.03-.06.07-.09.11a408.25 408.25 0 0 0-42.63 64.98c-.23.42-.46.86-.69 1.28-.11.23-.23.44-.34.66-4.66 8.7-8.53 16.77-12.21 25.5-.02.04-.04.09-.06.13-11.24 25.71-19.98 52.78-26.08 80.95a448.6 448.6 0 0 0-5.27 28.94c-.81 5.42-1.44 12.35-1.89 20.17-1.75 19.56-2.13 39.05-1.15 58.34 0 .12 0 .23.01.35.13 5.2.61 11.4 1.34 18.23l.03.24c.24 2.65.52 5.28.83 7.9.44 5.04.95 9.58 1.55 13.44.65 4.18 1.36 8.36 2.14 12.5.25 1.38.52 2.76.78 4.14.76 3.84 1.56 7.66 2.42 11.47.28 1.26.57 2.51.87 3.77.25 1.1.51 2.21.79 3.32.37 1.5.74 3.01 1.12 4.51.33 1.3.66 2.61 1.01 3.89 1.74 6.57 3.63 13.09 5.7 19.53.21.66.41 1.32.62 1.98.2.66.41 1.32.63 1.98.02.07.04.13.07.2.2.6.4 1.2.61 1.78.7 2.17 1.44 4.33 2.2 6.48l.28.79c.55 1.59 1.12 3.17 1.71 4.75.57 1.59 1.17 3.17 1.78 4.74.59 1.59 1.2 3.15 1.83 4.71.61 1.56 1.23 3.1 1.86 4.65.65 1.58 1.31 3.16 1.98 4.74.69 1.64 1.41 3.28 2.13 4.92.76 1.75 1.54 3.5 2.34 5.23.64 1.39 1.27 2.77 1.92 4.14.56 1.23 1.14 2.44 1.73 3.64.57 1.18 1.14 2.36 1.72 3.53.53 1.06 1.05 2.11 1.58 3.16 4.51 9.06 9.38 17.97 14.6 26.75.77 1.31 1.54 2.6 2.32 3.88.75 1.26 1.52 2.51 2.31 3.75.03.06.06.1.09.15.62 1.01 1.25 2.02 1.9 3.03.28.44.55.88.84 1.31.43.7.88 1.4 1.33 2.09.46.73.94 1.46 1.42 2.18.44.7.9 1.38 1.36 2.07.33.51.67 1.02 1.01 1.51.52.8 1.05 1.59 1.59 2.38.44.66.89 1.33 1.35 1.98.8 1.19 1.63 2.37 2.45 3.54.55.79 1.1 1.57 1.66 2.36 1.83 2.58 3.69 5.14 5.57 7.69 3.63 4.91 8.74 10.97 14.74 17.62.02.04.05.06.07.09 17.38 20.54 36.48 39.13 57.08 55.66 4.62 3.92 8.87 7.34 12.53 10.03 9.62 7.03 19.46 13.61 29.5 19.74 29.51 18.04 60.77 32.17 93.58 42.37 1.14.36 2.27.72 3.41 1.05 6.3 1.94 12.65 3.71 19.09 5.35 1.45.39 2.91.75 4.37 1.1 1.43.36 2.85.7 4.29 1.02.06.02.11.03.17.04 1.15.28 2.32.55 3.49.8.5.13 1.01.23 1.51.34.8.19 1.62.36 2.42.53.85.19 1.69.37 2.54.54.82.18 1.62.34 2.44.5.58.13 1.18.25 1.77.36.94.19 1.87.37 2.81.55.78.16 1.57.31 2.35.45 1.42.27 2.84.52 4.24.77.95.17 1.89.33 2.84.5 3.12.53 6.24 1.02 9.38 1.49 6.47.97 15.08 1.67 24.8 2.14 5.16.38 10.35.65 15.57.83 1.03.04 2.07.08 3.11.1 1.02.04 2.05.06 3.1.08 2.07.05 4.14.08 6.22.08 1.04.02 2.09.02 3.12.01 6.37.01 12.74-.13 19.1-.4.06 0 .12-.01.18-.01l.54.01c5.53 0 12.53-.47 20.37-1.3 8.71-.57 16.49-1.32 22.56-2.26 11.77-1.83 23.38-4.12 34.82-6.9 46.38-11.19 89.84-29.98 130.04-56.09 1.83-1.19 3.66-2.4 5.5-3.63 20.11-13.43 39.93-29.77 58.34-47.92a413.55 413.55 0 0 0 16.62-17.17c4.36-4.41 9.53-10.44 15.06-17.41.09-.11.17-.22.27-.34 19-23.3 35.32-48.56 48.79-75.47.26-.51.51-1 .76-1.51 1.73-3.43 3.35-6.81 4.92-10.24.04-.1.08-.2.12-.29 16.87-36.57 28.61-75.99 34.77-117.51.97-6.48 1.69-15.1 2.15-24.83 1.39-17.6 1.66-35.13.82-52.51l75.9-75.9c4.35 22.32 7.28 45.17 8.72 68.45.06.95.11 1.91.17 2.86.18 3.98.3 7.98.4 12 .03 1.69.05 3.4.08 5.1l.03 2.56c.01 1.79.03 3.59.03 5.38z"/>
 </symbol>

  <symbol id="icon-options" class="icon-options" viewBox="0 0 1000 1000" xmlns="http://www.w3.org/2000/svg">
    <path d="M542.9 588.2v.1h-.1zM1000.1 786.1c0 61.6-49.9 111.5-111.5 111.5-46.4 0-86.2-28.3-103-68.7H97.4v-85.7h688.3c16.8-40.3 56.6-68.7 103-68.7 61.5.1 111.4 50 111.4 111.6zM902.5 151v85.7H214.3c-16.8 40.3-56.6 68.7-103 68.7C49.7 305.4-.2 255.5-.2 193.9S49.7 82.3 111.3 82.3c46.4 0 86.2 28.3 103 68.7h688.2zM902.5 447.1v85.7H534.2c-16.8 40.3-56.5 68.7-103 68.7-46.4 0-86.2-28.3-103-68.7h-231v-85.7h231c16.8-40.3 56.6-68.7 103-68.7s86.2 28.3 103 68.7h368.3z"/>
  </symbol>

  <symbol id="icon-config" class="icon-config" viewBox="0 0 1000 1000" xmlns="http://www.w3.org/2000/svg">
    <path d="M999.4 415.1v1c-46.8 27-93.5 54-140.3 81-.8.5-1.6 1-2.5 1.5-.3.2-.5.4-.8.6-.1.1-.2.2-.3.4-.1.1-.1.3-.2.7 1.3.8 2.6 1.6 4 2.4 11.1 6.4 22.1 12.8 33.2 19.2 33.8 19.5 67.5 39 101.3 58.5 1.6.9 3.5 1.6 4.8 3.4-.1 1.3 0 2.7-.3 4.1l-3.9 18.3c-4.2 18.9-9.2 37.5-15.5 55.9-5.6 16.5-12 32.7-19.3 48.5-7.5 16.4-15.8 32.5-25.2 47.9-7 11.5-14.2 22.7-21.4 34.1-.1.1-.3.2-.4.2-.1.1-.3.1-.5.1-1.2-.3-2.5-.5-3.7-.9-33.8-9-67.6-18.1-101.3-27.1-17.9-4.8-35.8-9.6-53.7-14.3-.8-.2-1.5-.6-2.2.5 14.3 53.4 28.5 106.9 42.9 160.6-1.2.9-2.2 1.6-3.3 2.3-8 5-15.9 10.1-24 15-46.2 28.5-95.6 49.2-148.4 61.9-9.6 2.3-19.3 4.4-28.9 6.7-1.3.3-2.9.3-3.6 1.9h-1c-10-17.3-19.9-34.6-29.9-51.9-17.2-29.8-34.4-59.5-51.6-89.2-.8-1.3-1.3-2.8-2.9-4-1 1.6-1.9 2.9-2.7 4.2-6.1 10.5-12.2 21-18.2 31.5-20.1 34.7-40.1 69.5-60.2 104.2-.9 1.5-1.5 3.2-2.9 4.2-40.2-8.9-52.4-12.1-73.8-19.1-24-7.9-47.3-17.5-69.9-29-23.2-11.8-61.2-34.8-65.2-39.2.2-.9.3-1.8.6-2.8 9.3-34.9 18.7-69.7 28-104.6 4.5-16.7 8.9-33.3 13.3-50 .3-1.2 1.1-2.4-.1-3.6-53.5 14.3-107 28.6-160.6 42.9-1-1.5-1.9-2.8-2.8-4.2-4.3-6.8-8.5-13.5-12.8-20.3-16.6-26.3-30.5-54-42-82.8-10.6-26.6-18.8-54-24.9-82-1.5-6.7-3-13.3-4.6-20.2 9.8-5.6 19.4-11.2 29.1-16.8 9.5-5.5 19.1-11 28.6-16.5 9.7-5.6 19.4-11.2 29-16.8 9.5-5.5 19.1-11 28.6-16.5 9.6-5.6 19.3-11 29.6-17.1C130 490.3 114 481 98 471.8c-16.1-9.3-32.1-18.5-48.1-27.8s-32.1-18.4-48.1-27.9c.3-1.6.6-3 .9-4.4 1.8-7.6 3.6-15.2 5.3-22.9 11.6-51.4 30.8-99.7 57.5-145.1 6.9-11.7 14.2-23.1 21.4-34.7.4-.7.9-1.3 1.5-2.1 1.4.3 2.8.5 4.2.8 29.9 8 59.8 16 89.8 24 21.4 5.7 42.9 11.5 64.3 17.2 1 .3 2.1 1 3.3-.1-.2-1-.4-2-.7-3.1-7.6-28.5-15.2-57.1-22.9-85.6-6.1-22.7-12.1-45.4-18.2-68-.4-1.4-1-2.7-.3-4.4 1.1-.7 2.3-1.5 3.5-2.2 6.8-4.3 13.5-8.5 20.3-12.8 37-23.2 76.4-41.3 118-54.5 21-6.7 42.6-11.4 64-16.2.7-.2 1.4-.6 2.1-.9h1c.1.3.1.6.2.9 16.6 28.8 33.3 57.5 49.9 86.3 10.3 17.8 20.6 35.7 30.9 53.5.8 1.3 1.2 3 3.1 3.9 5.5-9.5 11-19.1 16.5-28.6L534.2 88c5.5-9.5 11-19.1 16.5-28.6 5.6-9.7 11.1-19.4 16.8-29.1 5.5-9.5 10.9-19.1 16.7-28.7 2.1.4 3.9.6 5.8 1l21.9 5.1c45 10.2 87.7 26.3 128.3 48.1 17.9 9.6 34.9 20.6 52.1 31.4.4.2.7.6 1.3 1.2-4.6 17.8-9.5 35.6-14.3 53.5l-14.4 53.7c-4.8 17.9-9.5 35.7-14.2 53.4 1.4 1 2.4.4 3.5.1 16.7-4.5 33.3-8.9 50-13.4 34.7-9.3 69.4-18.5 104.1-27.8 1.4-.4 2.7-1 4.4-.3.7 1.1 1.5 2.2 2.3 3.5 4.3 6.9 8.7 13.8 13 20.7 10.1 16 19.1 32.5 27.3 49.5 20.4 42.4 34.5 86.9 43 133.2.4-.2.8.2 1.1.6zM378 93.5c-6.2.8-26.9 8.1-44.5 15.7-17.2 7.4-29.3 13.4-33.1 16.5.3 1.4.7 3 1.1 4.5 9.5 35.6 19 71.3 28.6 106.9 3.5 13.3 3.7 26.5 0 39.8-10.6 38.3-50.2 63.3-91.5 52.3-35.8-9.5-71.6-19.1-107.4-28.7-1.7-.4-3.3-1.1-5-1-8.7 12.8-29.6 63.4-31.9 77.2 1.2.8 2.5 1.6 3.9 2.4 13.6 7.8 27.1 15.7 40.7 23.5 18.8 10.9 37.8 21.5 56.4 32.7 23.2 14 35.6 34.9 36.6 62 .8 20.5-6.1 38.3-19.9 53.3-5.7 6.2-12.4 10.9-19.7 15.1-31.3 18-62.6 36.1-93.8 54.1-1.5.9-3 1.8-4.6 2.8 8.2 26.9 18.8 52.5 32 77.1 1-.1 1.8-.2 2.6-.4 4.9-1.3 9.9-2.7 14.8-4 32.1-8.6 64.2-17.2 96.3-25.7 9-2.4 18.2-3.1 27.6-1.8 19.4 2.5 35.6 11.1 48.1 26.1 16.6 20 21.4 42.9 14.9 67.9-9.4 35.9-19.1 71.6-28.6 107.4-.4 1.5-.7 3.1-1.1 4.8 24.7 13.2 50.3 23.8 77.2 31.9 1-1.5 1.8-2.9 2.6-4.2 5.3-9.1 10.6-18.3 15.8-27.4 13.4-23.2 26.7-46.6 40.3-69.7 21.6-36.8 68.8-47.6 104.4-25.3 10.8 6.8 19.1 15.9 25.4 26.9 18.2 31.6 36.4 63.1 54.6 94.7.9 1.6 2 3.2 2.9 4.8 14.3-2.4 68.5-25 77.4-32.3-.4-1.8-.8-3.6-1.3-5.5-9.4-35.2-18.8-70.4-28.3-105.5-3.3-12.1-3.8-24.3-1.1-36.5 7.3-32.9 36.2-58.1 72-58.7 7.6-.1 15 1.1 22.2 3 33.9 9.1 67.9 18.2 101.8 27.3 2.9.8 5.8 1.5 8.9 2.2.7-1.1 1.3-2 1.8-3 12.1-23.1 22-47.2 29.7-72.1.2-.7.3-1.5.4-2.3-2-1.2-3.7-2.2-5.5-3.3-31.5-18.2-63.2-36.3-94.6-54.7-21.4-12.5-34-31-37.2-55.7-2.8-21.4 3-40.5 16.7-57.2 5.9-7.3 13.2-12.9 21.3-17.6 31.7-18.2 63.4-36.6 95.1-54.9 1.5-.9 3.2-1.5 4.2-2.9-4.8-19.9-23.7-64.3-32.2-77-1.4.3-3 .6-4.5 1-35.8 9.6-71.6 19.1-107.4 28.7-10.3 2.8-20.8 3.4-31.3 1.7-20.1-3.3-36.3-13-48.3-29.3-13.9-18.8-18-39.9-12.5-62.7 2.3-9.5 4.9-18.8 7.5-28.3 7.3-27.5 14.7-54.9 22-82.4.3-1 .3-2.1.4-3-.5-.4-.8-.6-1-.8-23.5-12.5-47.9-22.6-73.3-30.5-.9-.3-1.8-.3-2.9-.4-1.1 1.8-2.1 3.4-3.1 5-18.3 31.7-36.4 63.5-54.9 95-13.8 23.5-34.6 36.3-61.9 37.6-20.3 1-38-5.6-53.2-19.1-6.7-5.9-11.7-13-16.1-20.7-17.9-31.2-35.9-62.3-53.9-93.4-.9-1.1-1.8-2.6-2.6-3.9z"/>
    <path d="M700.3 499.8c.3 109.6-89.5 199.5-199.7 199.5-108.3 0-199.8-87.9-199.6-200.1C301.2 388 392 299 502.4 300c111 1 198.5 91.9 197.9 199.8zM500.9 379.9c-66.1 0-119.7 53.8-119.9 119.4-.1 65.8 53.4 119.7 119.3 120 65.9.2 119.8-53.6 120.1-119.2.3-64.9-52.4-119.9-119.5-120.2z"/>
  </symbol>

 <symbol id="icon-anfasser" class="icon-anfasser" viewBox="0 0 1000 1000" xmlns="http://www.w3.org/2000/svg">
    <circle cx="342" cy="175.4" r="92.8"/>
    <circle cx="342" cy="500.5" r="92.8"/>
    <circle cx="342" cy="824.6" r="92.8"/>
    <circle cx="660" cy="175.4" r="92.8"/>
    <circle cx="660" cy="500.5" r="92.8"/>
    <circle cx="660" cy="824.6" r="92.8"/>
 </symbol>

  <symbol id="icon-design_edit" class="icon-design_edit" viewBox="0 0 800 800" xmlns="http://www.w3.org/2000/svg">
    <path d="M254 800.1H.4V543.8l14-12.8c15.5-15.3 265.9-265.8 288.7-288.8l29.7-38.1 258.4 258.4-31.9 31.8c-1.8 1.8-289.2 289.7-292.1 292.6L254 800.1zm-163.6-90h126.3c46.8-46.9 184.5-184.8 247.2-247.6L337 335.6 223.1 449.5 90.3 582.3v127.8zM15 530.4s-.1.1-.3.2l.3-.2zM655.7 398.8L624 367.1c-42.2-42.1-85.1-85-126.6-126.5-21.4-21.4-42.7-42.8-64.1-64.1l-31.8-31.8L545.6.6l31.8 31.9C640.2 95.4 704.2 159.4 766 221.2l33.9 33.9-31.9 31.7c-11.5 11.4-22.9 22.9-34.4 34.4-15.1 15.1-30.7 30.7-46.1 46l-31.8 31.6zM528.8 144.7l32.3 32.3 94.7 94.7 14.1-14.1 2.7-2.7c-42-42-84.6-84.6-127-127.1l-16.8 16.9z"/>
  </symbol>

 <symbol id="icon-add" class="icon-add" viewBox="0 0 1000 1000" xmlns="http://www.w3.org/2000/svg">
    <path d="M1000 455.7v90H545V1000h-90V545.7H0v-90h455V0h90v455.7z"/>
 </symbol>

  <symbol id="icon-morearrow" class="icon-morearrow" viewBox="0 0 32 32">
    <path d="M32 9.395l-16 16-16-16 2.048-2.048 13.952 13.949 13.949-13.949z"></path>
  </symbol>

  <symbol id="icon-folder" viewBox="0 0 32 32">
    <path d="M31.971 26.859c0 0.659-0.536 1.195-1.195 1.195h-29.552c-0.659 0-1.195-0.536-1.195-1.195v-23.136c0-0.533 0.432-0.965 0.965-0.965h9.28c0.256 0 0.501 0.101 0.683 0.283l2.915 2.915c0.181 0.181 0.427 0.283 0.683 0.283h16.445c0.533 0 0.965 0.432 0.965 0.965l0.005 19.656z"></path>
  </symbol>

  <symbol id="icon-drive" viewBox="0 0 32 32">
    <path d="M30.941 9.867h-29.883c-0.584 0-1.059 0.475-1.059 1.059v10.149c0 0.584 0.475 1.059 1.059 1.059h29.883c0.584 0 1.059-0.475 1.059-1.059v-10.149c0-0.584-0.475-1.059-1.059-1.059zM5.203 18.093c-1.155 0-2.093-0.939-2.093-2.093s0.939-2.093 2.093-2.093c1.157 0 2.093 0.939 2.093 2.093s-0.936 2.093-2.093 2.093z"></path>
  </symbol>

  <symbol id="icon-diskette" viewBox="0 0 32 32">
    <path  d="M22.723 3.893c-1.021 0-2.045 0-3.067 0-0.301 0-0.456 0.155-0.456 0.461 0 1.141 0 2.285 0 3.427 0 1.152 0 2.301 0 3.453 0 0.288 0.157 0.445 0.443 0.445 1.027 0 2.053 0 3.080 0 0.293 0 0.451-0.157 0.451-0.453 0-2.293 0-4.587 0-6.88 0-0.296-0.157-0.453-0.451-0.453zM22.723 3.893c-1.021 0-2.045 0-3.067 0-0.301 0-0.456 0.155-0.456 0.461 0 1.141 0 2.285 0 3.427 0 1.152 0 2.301 0 3.453 0 0.288 0.157 0.445 0.443 0.445 1.027 0 2.053 0 3.080 0 0.293 0 0.451-0.157 0.451-0.453 0-2.293 0-4.587 0-6.88 0-0.296-0.157-0.453-0.451-0.453zM30.259 4.536c-1.272-1.267-2.541-2.539-3.808-3.808-0.064-0.067-0.131-0.091-0.221-0.091-8.069 0.003-16.141 0.003-24.211 0.003h-0.147v30.709h28.475v-0.141c0-8.816 0-17.635 0.003-26.451 0-0.091-0.024-0.155-0.091-0.221zM7.973 3.555c0-0.341 0.147-0.488 0.485-0.488 5.021 0 10.043 0 15.064 0 0.328 0 0.477 0.149 0.477 0.48 0 2.835 0 5.669 0 8.504 0 0.331-0.149 0.48-0.477 0.48-2.512 0-5.021 0-7.533 0s-5.021 0-7.533 0c-0.339 0-0.485-0.147-0.485-0.488 0.003-2.827 0.003-5.656 0.003-8.488zM26.773 28.091c0 0.355-0.144 0.496-0.501 0.496-6.848 0-13.696 0-20.544 0-0.357 0-0.501-0.141-0.501-0.499 0-2.773 0-5.547 0-8.32 0-0.347 0.147-0.491 0.496-0.491 3.429 0 6.861 0 10.291 0 3.416 0 6.835 0 10.251 0 0.368 0 0.507 0.139 0.507 0.504 0.003 2.773 0.003 5.541 0.003 8.309zM19.643 11.68c1.027 0 2.053 0 3.080 0 0.293 0 0.451-0.157 0.451-0.453 0-2.293 0-4.587 0-6.88 0-0.296-0.155-0.453-0.451-0.453-1.021 0-2.045 0-3.067 0-0.301 0-0.456 0.155-0.456 0.461 0 1.141 0 2.285 0 3.427 0 1.152 0 2.301 0 3.453 0 0.285 0.157 0.445 0.443 0.445z"></path>
    <path  d="M30.259 4.536c-1.272-1.267-2.541-2.539-3.808-3.808-0.064-0.067-0.131-0.091-0.221-0.091-8.069 0.003-16.141 0.003-24.211 0.003h-0.147v30.709h28.475v-0.141c0-8.816 0-17.635 0.003-26.451 0-0.091-0.024-0.155-0.091-0.221zM7.973 3.555c0-0.341 0.147-0.488 0.485-0.488 5.021 0 10.043 0 15.064 0 0.328 0 0.477 0.149 0.477 0.48 0 2.835 0 5.669 0 8.504 0 0.331-0.149 0.48-0.477 0.48-2.512 0-5.021 0-7.533 0s-5.021 0-7.533 0c-0.339 0-0.485-0.147-0.485-0.488 0.003-2.827 0.003-5.656 0.003-8.488zM26.773 28.091c0 0.355-0.144 0.496-0.501 0.496-6.848 0-13.696 0-20.544 0-0.357 0-0.501-0.141-0.501-0.499 0-2.773 0-5.547 0-8.32 0-0.347 0.147-0.491 0.496-0.491 3.429 0 6.861 0 10.291 0 3.416 0 6.835 0 10.251 0 0.368 0 0.507 0.139 0.507 0.504 0.003 2.773 0.003 5.541 0.003 8.309z"></path>
    <path  d="M23.173 4.347c0 2.293 0 4.587 0 6.88 0 0.296-0.155 0.453-0.451 0.453-1.027 0-2.053 0-3.080 0-0.285 0-0.443-0.16-0.443-0.445 0-1.152 0-2.301 0-3.453 0-1.141 0-2.285 0-3.427 0-0.307 0.155-0.461 0.456-0.461 1.021 0 2.045 0 3.067 0 0.293 0 0.451 0.157 0.451 0.453z"></path>
  </symbol>

  <symbol id="icon-addDashed" viewBox="0 0 32 32">
    <path d="M-0.022 17.437h1.92v6.32h-1.92v-6.32z"></path>
    <path d="M1.898 7.328h-1.92v-3.19c0-1.382 0.685-2.672 1.834-3.45l1.075 1.59c-0.621 0.419-0.989 1.114-0.989 1.859v3.19z"></path>
    <path d="M20.563-0.022h6.32v1.92h-6.32v-1.92z"></path>
    <path d="M21.542 30.102h6.326v1.92h-6.326v-1.92z"></path>
    <path d="M5.766 16.96c-0.531 0-0.96-0.429-0.96-0.96s0.429-0.96 0.96-0.96h9.274v-9.28c0-0.531 0.429-0.96 0.96-0.96 0.266 0 0.506 0.109 0.678 0.282s0.282 0.413 0.282 0.678v9.28h9.286c0.531 0 0.96 0.429 0.96 0.96 0 0.266-0.109 0.506-0.282 0.678s-0.413 0.282-0.678 0.282h-9.286v9.28c0 0.531-0.429 0.96-0.96 0.96s-0.96-0.429-0.96-0.96v-9.28h-9.274z"></path>
    <path d="M30.102 24.669h1.92v3.194c0 1.382-0.685 2.669-1.83 3.446l-1.075-1.59c0.618-0.419 0.986-1.114 0.986-1.856v-3.194z"></path>
    <path d="M30.102 16.454h1.92v6.32h-1.92v-6.32z"></path>
    <path d="M30.102 8.24h1.92v6.32h-1.92v-6.32z"></path>
    <path d="M32.022 4.138v2.208h-1.92v-2.208c0-0.989-0.662-1.872-1.606-2.15l0.541-1.843c0.845 0.25 1.606 0.771 2.141 1.478 0.554 0.73 0.845 1.597 0.845 2.515z"></path>
    <path d="M13.328 30.102h6.32v1.92h-6.32v-1.92z"></path>
    <path d="M12.349-0.022h6.32v1.92h-6.32v-1.92z"></path>
    <path d="M5.114 30.102h6.32v1.92h-6.32v-1.92z"></path>
    <path d="M-0.022 9.222h1.92v6.32h-1.92v-6.32z"></path>
    <path d="M3.504 30.013l-0.544 1.84c-0.845-0.25-1.603-0.774-2.138-1.478-0.554-0.726-0.845-1.597-0.845-2.512v-2.211h1.92v2.211c0 0.986 0.659 1.872 1.606 2.15z"></path>
    <path d="M4.134-0.022h6.32v1.92h-6.32v-1.92z"></path>
  </symbol>

  <symbol id="icon-selectAllDashed" viewBox="0 0 32 32">
    <path d="M-0.022 17.437h1.92v6.32h-1.92v-6.32z"></path>
    <path d="M1.898 7.328h-1.92v-3.19c0-1.382 0.685-2.672 1.834-3.45l1.075 1.59c-0.621 0.419-0.989 1.114-0.989 1.859v3.19z"></path>
    <path d="M20.563-0.022h6.32v1.92h-6.32v-1.92z"></path>
    <path d="M21.542 30.102h6.326v1.92h-6.326v-1.92z"></path>
    <path d="M30.102 24.669h1.92v3.194c0 1.382-0.685 2.669-1.83 3.446l-1.075-1.59c0.618-0.419 0.986-1.114 0.986-1.856v-3.194z"></path>
    <path d="M30.102 16.454h1.92v6.32h-1.92v-6.32z"></path>
    <path d="M30.102 8.24h1.92v6.32h-1.92v-6.32z"></path>
    <path d="M32.022 4.138v2.208h-1.92v-2.208c0-0.989-0.662-1.872-1.606-2.15l0.541-1.843c0.845 0.25 1.606 0.771 2.141 1.478 0.554 0.73 0.845 1.597 0.845 2.515z"></path>
    <path d="M13.328 30.102h6.32v1.92h-6.32v-1.92z"></path>
    <path d="M12.349-0.022h6.32v1.92h-6.32v-1.92z"></path>
    <path d="M5.114 30.102h6.32v1.92h-6.32v-1.92z"></path>
    <path d="M-0.022 9.222h1.92v6.32h-1.92v-6.32z"></path>
    <path d="M3.504 30.013l-0.544 1.84c-0.845-0.25-1.603-0.774-2.138-1.478-0.554-0.726-0.845-1.597-0.845-2.512v-2.211h1.92v2.211c0 0.986 0.659 1.872 1.606 2.15z"></path>
    <path d="M4.134-0.022h6.32v1.92h-6.32v-1.92z"></path>
    <path d="M25.286 6.72v18.56h-18.56v-18.56h18.56zM27.206 4.8h-22.4v22.4h22.4v-22.4z"></path>
  </symbol>

  <symbol id="icon-trash" viewBox="0 0 32 32">
    <path d="M6.41 8.634v19.277c0 2.294 1.866 4.16 4.16 4.16h10.675c2.294 0 4.16-1.866 4.16-4.16v-19.277h-18.995zM23.485 27.91c0 1.235-1.005 2.24-2.24 2.24h-10.675c-1.235 0-2.24-1.005-2.24-2.24v-17.357h15.155v17.357z"></path>
    <path d="M10.432 12.813h1.92v15.37h-1.92v-15.37z"></path>
    <path d="M21.44 4.602c-0.147-1.056-0.534-2.035-1.126-2.822-0.832-1.101-1.962-1.709-3.181-1.709h-2.445c-1.222 0-2.352 0.608-3.181 1.709-0.592 0.787-0.982 1.766-1.126 2.822h-4.032v1.92h19.126v-1.92h-4.035zM12.32 4.602c0.122-0.63 0.368-1.203 0.717-1.667 0.458-0.608 1.043-0.944 1.648-0.944h2.445c0.605 0 1.19 0.336 1.648 0.944 0.349 0.464 0.592 1.037 0.717 1.667h-7.174z"></path>
    <path d="M19.584 12.813h1.92v15.37h-1.92v-15.37z"></path>
    <path d="M14.95 12.813h1.92v15.37h-1.92v-15.37z"></path>
  </symbol>

  <symbol id="icon-addLayer" viewBox="0 0 32 32">
    <path d="M30.747 2.4h-9.048c-0.675 0-1.221 0.547-1.221 1.221v9.048c0 0.675 0.547 1.221 1.221 1.221h9.048c0.675 0 1.221-0.547 1.221-1.221v-9.051c0-0.672-0.547-1.219-1.221-1.219zM30.387 8.557c-0.037 0.069-0.085 0.133-0.141 0.187-0.155 0.155-0.365 0.248-0.6 0.248h-2.576v2.573c0 0.32-0.179 0.6-0.44 0.744-0.12 0.067-0.261 0.104-0.408 0.104s-0.285-0.037-0.405-0.101c-0.072-0.040-0.139-0.088-0.197-0.147-0.155-0.155-0.248-0.365-0.248-0.6v-2.573h-2.571c-0.32 0-0.597-0.176-0.741-0.437-0.069-0.123-0.107-0.261-0.107-0.413 0-0.144 0.037-0.28 0.101-0.4 0.040-0.075 0.091-0.141 0.149-0.2 0.155-0.155 0.365-0.248 0.6-0.248h2.571v-2.573c0-0.323 0.179-0.603 0.445-0.747 0.12-0.064 0.259-0.101 0.405-0.101 0.149 0 0.288 0.037 0.408 0.104 0.072 0.040 0.136 0.088 0.192 0.144 0.155 0.155 0.248 0.365 0.248 0.6v2.573h2.576c0.325 0 0.605 0.181 0.749 0.448 0.064 0.12 0.101 0.256 0.101 0.4-0.005 0.152-0.043 0.293-0.112 0.416z"></path>
    <path d="M26.416 15.869h4.549l-4.403 4.531c-0.723 0.741-2.883 1.344-4.827 1.344h-19.28c-1.944 0-2.936-0.603-2.213-1.344l3.219-3.315h18.269c1.832 0 3.853-0.533 4.685-1.216z"></path>
    <path d="M8.4 4.555c-0.24 0.101-0.453 0.213-0.635 0.328v0c0 0 0 0-0.003 0 0 0 0 0 0 0s0 0-0.003 0v0c0 0 0 0-0.003 0 0 0 0 0 0 0s0 0-0.003 0c0 0 0 0 0 0s0 0 0 0 0 0 0 0 0 0 0 0 0 0 0 0 0 0-0.003 0c0 0 0 0 0 0s0 0-0.003 0c0 0 0 0 0 0s0 0 0 0 0 0 0 0 0 0 0 0 0 0 0 0 0 0 0 0 0 0 0 0 0 0 0 0 0 0 0 0 0 0 0 0 0 0 0 0 0 0 0 0 0 0 0 0 0 0 0 0 0 0 0 0 0 0 0 0 0 0 0 0 0 0 0 0c-0.003 0-0.003 0.003-0.005 0.003 0 0 0 0 0 0s0 0 0 0 0 0 0 0 0 0 0 0 0 0 0 0 0 0 0 0 0 0 0 0 0 0 0 0 0 0 0 0 0 0 0 0 0 0 0 0c-0.101 0.067-0.189 0.136-0.267 0.205 0 0 0 0 0 0s0 0 0 0 0 0 0 0 0 0 0 0 0 0 0 0 0 0 0 0 0 0 0 0 0 0 0 0 0 0 0 0 0 0 0 0 0 0 0 0 0 0 0 0 0 0 0 0 0 0 0 0c-0.005 0.005-0.011 0.011-0.016 0.016v0c0 0-0.003 0.003-0.003 0.003s0 0 0 0 0 0 0 0v0c0 0 0 0 0 0s0 0 0 0 0 0 0 0 0 0 0 0 0 0 0 0 0 0 0 0 0 0 0 0 0 0 0 0 0 0 0 0 0 0 0 0 0 0 0 0 0 0 0 0 0 0 0 0 0 0 0 0 0 0 0 0 0 0 0 0 0 0 0 0 0 0 0 0 0 0 0 0 0 0 0 0 0 0 0 0 0 0 0 0 0 0 0 0c-0.003 0.003-0.003 0.003-0.005 0.005 0 0 0 0 0 0s-0.003 0.003-0.003 0.003c0 0 0 0 0 0s0 0 0 0 0 0 0 0 0 0 0 0 0 0 0 0-0.003 0.003-0.003 0.003c0 0 0 0 0 0s0 0 0 0 0 0 0 0 0 0 0 0 0 0 0 0 0 0 0 0 0 0 0 0 0 0 0 0 0 0 0 0 0 0 0 0 0 0 0 0 0 0 0 0 0 0 0 0 0 0 0 0 0 0 0 0 0 0 0 0 0 0 0 0 0 0 0 0 0 0 0 0 0 0 0 0 0 0 0 0-0.003 0.003-0.003 0.003c0 0 0 0 0 0s0 0 0 0 0 0 0 0 0 0 0 0v0l-3.168 3.259 1.219 1.184 3.107-3.197c0.016-0.013 0.139-0.112 0.461-0.251l-0.664-1.563zM1.123 11.629c0 0-0.749 0.771-0.872 0.896v0c0 0 0 0 0 0v0c-0.008 0.008-0.013 0.013-0.013 0.016v0c0 0 0 0 0 0v0c0 0 0 0 0 0v0c0 0 0 0 0 0v0c0 0 0 0 0 0v0 0 0c0 0-0.003 0.003-0.003 0.003s0 0 0 0c-0.101 0.104-0.168 0.205-0.203 0.301 0 0 0 0 0 0s0 0 0 0v0c0 0 0 0 0 0v0c0 0 0 0 0 0v0c0 0 0 0 0 0s0 0 0 0 0 0 0 0 0 0 0 0 0 0 0 0 0 0 0 0 0 0 0 0 0 0 0 0 0 0 0 0 0 0 0 0 0 0 0 0 0 0 0 0 0 0 0 0 0 0 0 0 0 0 0 0 0 0 0 0 0 0 0 0 0 0 0 0 0 0 0 0 0 0 0 0 0 0 0 0 0 0 0 0 0 0 0 0v0c0 0 0 0 0 0s0 0 0 0 0 0 0 0 0 0 0 0 0 0 0 0 0 0 0 0 0 0 0 0 0 0 0 0.003c0 0 0 0 0 0s0 0 0 0 0 0 0 0 0 0 0 0 0 0 0 0 0 0 0 0 0 0 0 0 0 0 0 0 0 0 0 0 0 0 0 0 0 0 0 0 0 0 0 0 0 0 0 0 0 0 0 0 0 0 0 0 0 0 0 0 0 0 0 0 0 0 0 0 0 0 0 0 0 0 0 0 0 0 0 0 0 0 0 0 0 0 0 0 0 0 0 0 0 0 0 0 0 0 0 0 0 0 0 0c-0.032 0.112-0.024 0.219 0.027 0.32v0c0 0 0 0 0 0s0 0 0 0 0 0 0 0 0 0 0 0 0 0 0 0 0 0 0 0 0 0.003 0.003 0.003c0 0 0 0 0 0s0 0 0 0 0 0 0 0 0 0 0 0 0 0 0 0 0 0 0 0 0 0 0 0 0 0 0 0 0 0 0 0 0 0 0 0 0 0 0 0 0 0 0 0 0 0 0 0 0 0 0 0 0 0 0 0 0 0 0 0 0 0 0 0 0 0 0 0 0 0 0 0 0 0 0 0 0 0 0 0 0 0 0 0 0 0 0 0 0 0 0 0 0 0 0 0 0 0 0 0 0 0 0 0 0 0 0 0 0 0 0 0 0 0 0 0 0 0 0 0 0 0 0 0 0 0 0 0 0 0 0 0 0 0 0 0 0 0 0 0 0 0.003 0.003 0.003v0c0 0 0 0 0 0s0 0 0 0 0 0 0 0 0 0 0 0 0 0 0 0 0 0 0 0c0.072 0.123 0.205 0.232 0.395 0.325v0c0.141 0.069 0.312 0.131 0.509 0.179v0c0.005 0 0.008 0.003 0.013 0.003 0 0 0 0 0 0s0.003 0 0.003 0c0 0 0 0 0 0s0.003 0 0.003 0c0 0 0 0 0 0 0.003 0 0.008 0.003 0.011 0.003 0 0 0 0 0 0s0.003 0 0.003 0c0 0 0 0 0 0s0.003 0 0.003 0c0 0 0 0 0 0s0.003 0 0.003 0c0 0 0 0 0 0s0.003 0 0.003 0v0c0 0 0.003 0 0.003 0v0c0 0 0.003 0 0.003 0s0 0 0 0 0.003 0 0.003 0c0 0 0 0 0 0s0.003 0 0.003 0c0 0 0 0 0 0s0.003 0 0.003 0c0 0 0 0 0 0s0.003 0 0.003 0c0 0 0 0 0 0s0.003 0 0.003 0c0 0 0 0 0 0s0.003 0 0.003 0c0 0 0 0 0 0s0.003 0 0.003 0c0 0 0 0 0 0s0.003 0 0.003 0c0 0 0 0 0 0s0.003 0 0.003 0v0c0.003 0 0.005 0 0.008 0.003 0 0 0 0 0 0s0.003 0 0.003 0c0 0 0 0 0 0s0.003 0 0.003 0c0 0 0 0 0 0s0.003 0 0.003 0c0 0 0 0 0 0s0.003 0 0.003 0c0 0 0 0 0 0s0.003 0 0.003 0c0 0 0 0 0 0s0.003 0 0.003 0c0 0 0 0 0 0s0.003 0 0.003 0c0 0 0 0 0 0s0.003 0 0.003 0c0 0 0 0 0 0s0.003 0 0.003 0c0 0 0 0 0 0s0.003 0 0.003 0c0 0 0 0 0 0s0.003 0 0.003 0c0 0 0 0 0 0s0.003 0 0.003 0c0 0 0 0 0 0s0.003 0 0.003 0c0 0 0 0 0 0s0.003 0 0.003 0c0 0 0 0 0 0s0.003 0 0.003 0c0 0 0 0 0 0s0.003 0 0.003 0c0 0 0 0 0 0s0.003 0 0.003 0c0 0 0 0 0 0s0.003 0 0.003 0c0 0 0 0 0 0s0.003 0 0.003 0c0 0 0 0 0 0s0.003 0 0.003 0c0 0 0 0 0 0s0.003 0 0.003 0c0 0 0 0 0 0s0.003 0 0.003 0c0 0 0 0 0 0s0.003 0 0.003 0c0 0 0 0 0 0s0.003 0 0.003 0c0 0 0 0 0 0s0.003 0 0.003 0c0 0 0 0 0 0s0.003 0 0.003 0c0 0 0 0 0.003 0 0 0 0.003 0 0.003 0s0 0 0 0 0.003 0 0.003 0c0 0 0 0 0 0s0.003 0 0.003 0c0 0 0 0 0 0s0.003 0 0.003 0c0 0 0 0 0 0s0.003 0 0.003 0c0 0 0 0 0 0s0.003 0 0.003 0c0 0 0 0 0 0s0.003 0 0.003 0c0 0 0 0 0 0s0.003 0 0.003 0c0 0 0 0 0 0s0.003 0 0.003 0c0 0 0 0 0 0s0.003 0 0.003 0c0 0 0 0 0 0s0.003 0 0.003 0c0 0 0 0 0 0s0.003 0 0.003 0c0 0 0 0 0.003 0 0 0 0.003 0 0.003 0s0 0 0 0 0.003 0 0.003 0c0 0 0 0 0 0s0.003 0 0.003 0c0 0 0 0 0 0s0.003 0 0.003 0c0 0 0 0 0 0s0.003 0 0.003 0c0 0 0 0 0 0s0.003 0 0.003 0c0 0 0 0 0 0s0.003 0 0.003 0c0 0 0 0 0 0s0.003 0 0.003 0c0 0 0 0 0 0s0.003 0 0.003 0c0 0 0 0 0 0s0.003 0 0.003 0c0 0 0 0 0 0s0.003 0 0.003 0c0 0 0 0 0.003 0 0 0 0.003 0 0.003 0s0 0 0.003 0c0 0 0.003 0 0.003 0s0 0 0 0 0.003 0 0.003 0c0 0 0 0 0 0s0.003 0 0.003 0c0 0 0 0 0.003 0 0 0 0.003 0 0.003 0s0 0 0.003 0c0 0 0 0 0.003 0 0 0 0.003 0 0.003 0s0 0 0.003 0c0 0 0.003 0 0.003 0s0 0 0.003 0c0 0 0 0 0.003 0 0 0 0.003 0 0.003 0s0 0 0.003 0c0 0 0.003 0 0.003 0s0 0 0.003 0c0 0 0.003 0 0.003 0s0 0 0.003 0c0 0 0 0 0.003 0 0 0 0.003 0 0.003 0s0 0 0.003 0c0 0 0.003 0 0.003 0s0 0 0.003 0c0 0 0 0 0.003 0 0 0 0.003 0 0.003 0s0 0 0.003 0c0 0 0 0 0.003 0 0 0 0.003 0 0.003 0s0 0 0.003 0c0 0 0.003 0 0.003 0s0 0 0.003 0c0 0 0.003 0 0.003 0s0.003 0 0.003 0c0 0 0 0 0 0s0.003 0 0.003 0c0 0 0 0 0.003 0 0 0 0.003 0 0.003 0s0 0 0.003 0c0 0 0.003 0 0.003 0s0.003 0 0.003 0c0 0 0 0 0.003 0 0 0 0.003 0 0.003 0s0 0 0.003 0c0 0 0.003 0 0.003 0s0 0 0.003 0c0 0 0.003 0 0.003 0s0.003 0 0.003 0c0 0 0 0 0.003 0 0 0 0.003 0 0.003 0s0.003 0 0.003 0c0 0 0 0 0.003 0 0 0 0.003 0 0.003 0s0 0 0.003 0c0 0 0.003 0 0.003 0s0 0 0.003 0c0 0 0 0 0.003 0 0 0 0.003 0 0.003 0s0 0 0.003 0c0 0 0.003 0 0.003 0s0 0 0.003 0c0 0 0.003 0 0.003 0s0 0 0.003 0c0 0 0.003 0 0.003 0s0 0 0.003 0c0 0 0.003 0 0.003 0s0 0 0.003 0c0 0 0.003 0 0.003 0s0 0 0.003 0c0 0 0.003 0 0.003 0s0 0 0.003 0c0 0 0.003 0 0.003 0s0 0 0.003 0c0 0 0.003 0 0.003 0s0 0 0.003 0c0 0 0 0 0.003 0 0 0 0.003 0 0.003 0s0 0 0.003 0c0 0 0.003 0 0.003 0s0.003 0 0.003 0c0 0 0 0 0.003 0 0 0 0.003 0 0.003 0s0 0 0.003 0c0 0 0.003 0 0.003 0s0 0 0.003 0c0 0 0.003 0 0.003 0s0 0 0.003 0c0 0 0.003 0 0.003 0s0 0 0.003 0c0 0 0.003 0 0.003 0s0 0 0.003 0c0 0 0.003 0 0.003 0s0 0 0.003 0c0 0 0.003 0 0.003 0s0 0 0.003 0c0 0 0.003 0 0.003 0s0 0 0.003 0c0 0 0.003 0 0.003 0s0.003 0 0.003 0c0 0 0.003 0 0.003 0s0 0 0 0 0.003 0 0.003 0c0 0 0 0 0.003 0 0 0 0.003 0 0.003 0s0 0 0 0 0.003 0 0.003 0c0 0 0 0 0.003 0 0 0 0.003 0 0.003 0s0 0 0.003 0c0 0 0.003 0 0.003 0s0.003 0 0.003 0c0 0 0.003 0 0.003 0s0 0 0.003 0c0 0 0.003 0 0.003 0s0 0 0.003 0c0 0 0.003 0 0.003 0s0 0 0.003 0c0 0 0.003 0 0.003 0s0 0 0.003 0c0 0 0.003 0 0.003 0s0 0 0.003 0c0 0 0.003 0 0.003 0s0 0 0.003 0c0 0 0.003 0 0.003 0s0 0 0.003 0c0 0 0.003 0 0.003 0s0 0 0.003 0c0 0 0.003 0 0.003 0s0 0 0.003 0c0 0 0.003 0 0.003 0s0.003 0 0.003 0c0 0 0.003 0 0.003 0s0.003 0 0.003 0c0 0 0.003 0 0.003 0s0.003 0 0.003 0c0 0 0.003 0 0.003 0s0 0 0.003 0c0 0 0.003 0 0.003 0s0 0 0.003 0c0 0 0.003 0 0.003 0s0 0 0.003 0c0 0 0.003 0 0.003 0s0.003 0 0.003 0c0 0 0 0 0.003 0 0 0 0.003 0 0.003 0s0.003 0 0.003 0c0 0 0 0 0.003 0 0 0 0.003 0 0.003 0s0 0 0.003 0c0 0 0.003 0 0.003 0s0 0 0.003 0c0 0 0.003 0 0.003 0s0 0 0.003 0c0 0 0.003 0 0.003 0s0 0 0.003 0c0 0 0.003 0 0.003 0s0.003 0 0.003 0c0 0 0.003 0 0.003 0s0 0 0.003 0c0 0 0.003 0 0.003 0s0 0 0.003 0c0 0 0.003 0 0.003 0s0 0 0.003 0c0 0 0.003 0 0.003 0s0.003 0 0.003 0c0 0 0.003 0 0.003 0s0.003 0 0.003 0c0 0 0.003 0 0.003 0s0 0 0.003 0c0 0 0.003 0 0.003 0s0 0 0.003 0c0 0 0.003 0 0.003 0s0 0 0.003 0c0 0 0.003 0 0.003 0s0.003 0 0.003 0c0 0 0.003 0 0.003 0s0.003 0 0.003 0c0 0 0.003 0 0.003 0s0.003 0 0.003 0c0 0 0.003 0 0.003 0s0 0 0.003 0c0 0 0.003 0 0.003 0s0 0 0.003 0c0 0 0.003 0 0.003 0s0 0 0.003 0c0 0 0.003 0 0.003 0s0 0 0.003 0c0 0 0.003 0 0.003 0s0 0 0.003 0c0 0 0.003 0 0.003 0s0.003 0 0.003 0c0 0 0.003 0 0.003 0s0 0 0.003 0c0 0 0.003 0 0.003 0s0 0 0.003 0c0 0 0.003 0 0.003 0s0 0 0.003 0c0 0 0 0 0.003 0 0 0 0.003 0 0.003 0s0 0 0.003 0c0 0 0.003 0 0.003 0s0.003 0 0.003 0c0 0 0.003 0 0.003 0s0.003 0 0.003 0c0 0 0 0 0.003 0 0 0 0.003 0 0.003 0s0.003 0 0.003 0c0 0 0.003 0 0.003 0s0 0 0.003 0c0 0 0.003 0 0.003 0s0 0 0.003 0c0 0 0.003 0 0.003 0s0.003 0 0.003 0c0 0 0.003 0 0.003 0s0 0 0.003 0c0 0 0.003 0 0.003 0s0 0 0.003 0c0 0 0.003 0 0.003 0s0 0 0.003 0c0 0 0.003 0 0.003 0s0 0 0.003 0c0 0 0.003 0 0.003 0s0.003 0 0.003 0c0 0 0.003 0 0.003 0s0 0 0.003 0c0 0 0.003 0 0.003 0s0 0 0.003 0c0 0 0.003 0 0.003 0s0 0 0.003 0c0 0 0.003 0 0.003 0s0 0 0.003 0c0 0 0.003 0 0.003 0s0 0 0 0 0.003 0 0.003 0c0 0 0 0 0.003 0 0 0 0.003 0 0.003 0s0 0 0 0 0.003 0 0.003 0c0 0 0 0 0.003 0 0 0 0.003 0 0.003 0s0 0 0 0 0.003 0 0.003 0c0 0 0 0 0 0s0.003 0 0.003 0c0 0 0 0 0 0s0.003 0 0.003 0c0 0 0 0 0 0s0.003 0 0.003 0c0 0 0 0 0 0s0.003 0 0.003 0c0 0 0 0 0.003 0 0 0 0.003 0 0.003 0s0 0 0.003 0c0 0 0.003 0 0.003 0s0 0 0.003 0c0 0 0.003 0 0.003 0s0 0 0.003 0c0 0 0.003 0 0.003 0s0 0 0.003 0c0 0 0.003 0 0.003 0s0 0 0 0 0.003 0 0.003 0c0 0 0 0 0.003 0 0 0 0.003 0 0.003 0s0 0 0.003 0c0 0 0.003 0 0.003 0s0 0 0.003 0c0 0 0.003 0 0.003 0s0.003 0 0.003 0c0 0 0.003 0 0.003 0s0 0 0.003 0c0 0 0.003 0 0.003 0s0 0 0.003 0c0 0 0.003 0 0.003 0s0 0 0.003 0c0 0 0.003 0 0.003 0s0 0 0.003 0c0 0 0.003 0 0.003 0s0.003 0 0.003 0c0 0 0.003 0 0.003 0s0 0 0 0 0.003 0 0.003 0c0 0 0 0 0.003 0 0 0 0.003 0 0.003 0s0 0 0.003 0c0 0 0.003 0 0.003 0s0 0 0.003 0c0 0 0.003 0 0.003 0s0 0 0.003 0c0 0 0.003 0 0.003 0s0 0 0.003 0c0 0 0.003 0 0.003 0s0 0 0.003 0c0 0 0.003 0 0.003 0s0 0 0.003 0c0 0 0.003 0 0.003 0s0 0 0.003 0c0 0 0.003 0 0.003 0s0 0 0 0 0.003 0 0.003 0c0 0 0 0 0.003 0 0 0 0.003 0 0.003 0s0 0 0.003 0c0 0 0.003 0 0.003 0s0 0 0.003 0c0 0 0.003 0 0.003 0s0 0 0 0 0.003 0 0.003 0c0 0 0 0 0.003 0 0 0 0.003 0 0.003 0s0 0 0 0 0.003 0 0.003 0c0 0 0 0 0 0s0.003 0 0.003 0c0 0 0 0 0 0s0.003 0 0.003 0c0 0 0 0 0 0s0.003 0 0.003 0c0 0 0 0 0.003 0 0 0 0.003 0 0.003 0s0 0 0 0 0.003 0 0.003 0c0 0 0 0 0 0s0.003 0 0.003 0c0 0 0 0 0 0s0.003 0 0.003 0c0 0 0 0 0.003 0 0 0 0.003 0 0.003 0s0 0 0.003 0c0 0 0.003 0 0.003 0s0 0 0.003 0c0 0 0.003 0 0.003 0s0 0 0 0 0.003 0 0.003 0c0 0 0 0 0.003 0 0 0 0.003 0 0.003 0s0 0 0.003 0c0 0 0.003 0 0.003 0s0 0 0 0 0.003 0 0.003 0c0 0 0 0 0.003 0 0 0 0.003 0 0.003 0s0 0 0 0 0.003 0 0.003 0c0 0 0 0 0 0s0.003 0 0.003 0c0 0 0 0 0.003 0 0 0 0.003 0 0.003 0s0 0 0 0 0.003 0 0.003 0c0 0 0 0 0 0s0.003 0 0.003 0c0 0 0 0 0 0s0.003 0 0.003 0c0 0 0 0 0 0s0.003 0 0.003 0c0 0 0 0 0 0s0.003 0 0.003 0c0 0 0 0 0 0s0.003 0 0.003 0c0 0 0 0 0 0s0.003 0 0.003 0c0 0 0 0 0 0s0.003 0 0.003 0c0 0 0 0 0 0s0.003 0 0.003 0c0 0 0 0 0 0s0.003 0 0.003 0c0 0 0 0 0 0s0.003 0 0.003 0c0 0 0 0 0 0s0.003 0 0.003 0c0 0 0 0 0 0s0.003 0 0.003 0c0 0 0 0 0 0s0.003 0 0.003 0c0 0 0 0 0 0 0.003 0 0.003 0 0.005 0 0 0 0 0 0 0 0.003 0 0.003 0 0.003 0s0 0 0 0c0.003 0 0.003 0 0.005 0 0 0 0 0 0 0 0.003 0 0.003 0 0.005 0 0 0 0 0 0 0 0.003 0 0.003 0 0.005 0 0 0 0 0 0 0 0.003 0 0.003 0 0.005 0 0 0 0 0 0 0 0.003 0 0.003 0 0.005 0 0 0 0 0 0 0 0.003 0 0.003 0 0.005 0 0 0 0 0 0 0 0.003 0 0.003 0 0.005 0 0 0 0 0 0 0s0.003 0 0.003 0c0 0 0 0 0 0s0.003 0 0.003 0c0 0 0 0 0.003 0 0 0 0.003 0 0.003 0s0 0 0 0 0.003 0 0.003 0c0 0 0 0 0 0s0.003 0 0.003 0c0 0 0 0 0 0s0.003 0 0.003 0c0 0 0 0 0 0s0.003 0 0.003 0c0 0 0 0 0 0s0.003 0 0.003 0c0 0 0 0 0 0 0.003 0 0.003 0 0.005 0 0 0 0 0 0 0 0.003 0 0.003 0 0.003 0s0 0 0 0c0.003 0 0.003 0 0.005 0 0 0 0 0 0 0 0.003 0 0.003 0 0.005 0 0 0 0 0 0 0 0.003 0 0.003 0 0.005 0 0 0 0 0 0 0 0.003 0 0.003 0 0.005 0 0 0 0 0 0 0 0.003 0 0.003 0 0.005 0 0 0 0 0 0 0 0.003 0 0.003 0 0.005 0 0 0 0 0 0 0 0.003 0 0.003 0 0.005 0 0 0 0 0 0 0 0.003 0 0.003 0 0.005 0 0 0 0 0 0 0 0.003 0 0.003 0 0.005 0 0 0 0 0 0 0 0.003 0 0.003 0 0.005 0 0 0 0 0 0 0 0.003 0 0.005 0 0.011 0 0 0 0 0 0 0 0.003 0 0.003 0 0.005 0 0 0 0 0 0 0 0.003 0 0.003 0 0.005 0 0 0 0 0 0 0 0.003 0 0.003 0 0.005 0 0 0 0 0 0 0 0.003 0 0.003 0 0.005 0 0 0 0 0 0 0 0.003 0 0.003 0 0.005 0 0 0 0 0 0 0 0.003 0 0.003 0 0.005 0 0 0 0 0 0 0 0.003 0 0.003 0 0.005 0 0 0 0 0 0 0 0.003 0 0.003 0 0.005 0 0 0 0 0 0 0 0.003 0 0.003 0 0.005 0v0c0.003 0 0.003 0 0.005 0 0 0 0 0 0 0 0.003 0 0.003 0 0.005 0 0 0 0 0 0 0 0.003 0 0.003 0 0.005 0 0 0 0 0 0 0 0.003 0 0.003 0 0.005 0 0 0 0 0 0 0 0.003 0 0.003 0 0.005 0 0 0 0 0 0 0 0.003 0 0.003 0 0.005 0 0 0 0 0 0 0 0.003 0 0.003 0 0.005 0 0 0 0 0 0 0 0.003 0 0.003 0 0.005 0 0 0 0 0 0 0 0.003 0 0.003 0 0.005 0 0 0 0 0 0 0 0.003 0 0.003 0 0.005 0 0 0 0 0 0 0 0.003 0 0.003 0 0.005 0 0 0 0 0 0 0 0.003 0 0.003 0 0.005 0v0c0.003 0 0.003 0 0.005 0 0 0 0 0 0 0 0.003 0 0.003 0 0.005 0 0 0 0 0 0 0 0.003 0 0.003 0 0.005 0 0 0 0 0 0 0 0.003 0 0.003 0 0.005 0 0 0 0 0 0 0 0.003 0 0.003 0 0.005 0 0 0 0 0 0 0 0.003 0 0.003 0 0.005 0v0c0.003 0 0.003 0 0.005 0 0 0 0 0 0 0 0.003 0 0.003 0 0.005 0 0 0 0 0 0 0 0.003 0 0.003 0 0.005 0 0 0 0 0 0 0 0.003 0 0.003 0 0.005 0 0 0 0 0 0 0 0.003 0 0.003 0 0.005 0 0 0 0 0 0 0 0.003 0 0.005 0 0.011 0 0 0 0 0 0 0 0.003 0 0.003 0 0.005 0 0 0 0 0 0 0 0.003 0 0.003 0 0.005 0 0 0 0 0 0 0 0.003 0 0.003 0 0.005 0 0 0 0 0 0 0 0.003 0 0.003 0 0.005 0 0 0 0 0 0 0 0.003 0 0.003 0 0.005 0v0c0.003 0 0.003 0 0.005 0 0 0 0 0 0 0 0.003 0 0.003 0 0.005 0 0 0 0 0 0 0 0.003 0 0.003 0 0.005 0 0 0 0 0 0 0 0.003 0 0.003 0 0.005 0 0 0 0 0 0 0 0.003 0 0.003 0 0.005 0h1.064v-1.699h-1.075c-0.339 0-0.603-0.021-0.803-0.051l-0.525-0.307zM13.701 12.192h-5.659v1.699h5.659v-1.699zM18.496 12.192h-1.699v1.699h1.699v-1.699zM18.496 3.835h-5.659v1.699h5.659v-1.699z"></path>
    <path d="M26.416 23.725h4.549l-4.4 4.531c-0.723 0.741-2.883 1.344-4.827 1.344h-19.28c-1.944 0-2.936-0.603-2.213-1.344l3.219-3.315h18.269c1.829 0 3.851-0.533 4.683-1.216z"></path>
  </symbol>

  <symbol id="icon-information" viewBox="0 0 32 32">
    <path d="M16 0c8.831 0 16 7.169 16 16s-7.169 16-16 16c-8.831 0-16-7.169-16-16s7.169-16 16-16zM16 2.88c-7.241 0-13.12 5.879-13.12 13.12s5.879 13.12 13.12 13.12c7.241 0 13.12-5.879 13.12-13.12s-5.879-13.12-13.12-13.12zM18.878 17.28v6.080c0 1.59-1.291 2.88-2.88 2.88s-2.88-1.291-2.88-2.88v-6.080c0-1.589 1.29-2.88 2.88-2.88s2.88 1.29 2.88 2.88zM18.882 8.64c0 1.589-1.291 2.88-2.88 2.88s-2.88-1.29-2.88-2.88c0-1.59 1.29-2.88 2.88-2.88s2.88 1.29 2.88 2.88z"></path>
  </symbol>

  <symbol id="icon-file" viewBox="0 0 32 32">
    <path d="M28.544 9.672l-8.624-8.605c-0.683-0.683-1.611-1.067-2.576-1.067h-13.293c-0.648 0-1.173 0.525-1.173 1.173v29.653c0 0.648 0.525 1.173 1.173 1.173h24.32c0.648 0 1.173-0.525 1.173-1.173v-18.739c0-0.907-0.36-1.776-1-2.416zM5.936 13.992c0.24-0.243 0.573-0.392 0.941-0.392h8c0.736 0 1.333 0.597 1.333 1.333 0 0.368-0.149 0.701-0.389 0.944-0.243 0.24-0.576 0.389-0.944 0.389h-8c-0.736 0-1.333-0.597-1.333-1.333 0-0.368 0.149-0.701 0.392-0.941zM21.848 26.544c-0.243 0.24-0.576 0.389-0.944 0.389h-14.027c-0.736 0-1.333-0.597-1.333-1.333 0-0.368 0.149-0.701 0.392-0.941 0.24-0.243 0.573-0.392 0.941-0.392h14.029c0.736 0 1.333 0.597 1.333 1.333 0 0.368-0.149 0.701-0.392 0.944zM26.488 21.211c-0.243 0.24-0.576 0.389-0.944 0.389h-18.667c-0.736 0-1.333-0.597-1.333-1.333 0-0.368 0.149-0.701 0.392-0.941 0.24-0.243 0.573-0.392 0.941-0.392h18.667c0.736 0 1.333 0.597 1.333 1.333 0 0.368-0.149 0.701-0.389 0.944z"></path>
  </symbol>

  <symbol id="icon-error" viewBox="0 0 32 32">
    <path d="M30.776 30.776c-0.816 0.816-1.886 1.224-2.955 1.224s-2.139-0.408-2.955-1.224l-8.865-8.865-8.861 8.861c-1.632 1.632-4.278 1.632-5.91 0s-1.632-4.278 0-5.91l8.861-8.861-8.866-8.866c-1.632-1.632-1.632-4.278 0-5.91s4.278-1.632 5.91 0l8.866 8.866 0.005-0.005c1.632-1.632 4.278-1.632 5.91 0 0.816 0.816 1.224 1.886 1.224 2.955s-0.408 2.139-1.224 2.955l-0.005 0.005 8.865 8.865c1.632 1.632 1.632 4.278 0 5.91z"></path>
    <path d="M30.776 7.134c-1.632 1.632-4.278 1.632-5.91 0s-1.632-4.278 0-5.91 4.278-1.632 5.91 0c1.632 1.632 1.632 4.278 0 5.91z"></path>
  </symbol>

  <symbol id="icon-warning" viewBox="0 0 32 32">
    <path d="M31.478 24.886l-11.082-22.17c-0.838-1.677-2.525-2.717-4.397-2.717s-3.558 1.040-4.397 2.717l-11.082 22.17c-0.768 1.536-0.688 3.325 0.214 4.784s2.464 2.333 4.179 2.333h22.163c1.715 0 3.277-0.87 4.179-2.333s0.986-3.251 0.221-4.784zM28.474 27.946c-0.144 0.234-0.57 0.778-1.392 0.778h-22.163c-0.826 0-1.248-0.544-1.392-0.778s-0.442-0.858-0.070-1.594l9.344-18.698v5.094c0 0.883 0.358 1.683 0.938 2.262s1.379 0.938 2.262 0.938c1.766 0 3.2-1.434 3.2-3.2v-5.094l9.347 18.698c0.368 0.736 0.070 1.36-0.074 1.594z"></path>
    <path d="M19.2 22.333c0 1.767-1.433 3.2-3.2 3.2s-3.2-1.433-3.2-3.2c0-1.767 1.433-3.2 3.2-3.2s3.2 1.433 3.2 3.2z"></path>
</symbol>

</svg>
