
<svg display="none" xmlns="http://www.w3.org/2000/svg">

<symbol id="icon-test" class="icon-test" viewBox="0 0 1000 1000" xmlns="http://www.w3.org/2000/svg">
     <path d="M992.5 992.5H7.5V7.5h985v985zM173.7 826.3h652.6V173.7H173.7v652.6z"/>
 </symbol>

 <symbol id="icon-backup" class="icon-backup" viewBox="0 0 1000 1000" xmlns="http://www.w3.org/2000/svg">
 <path d="M917.8 226.3l-61.18 61.18-10.77-16.22c-29.57-44.79-71.21-87-114.28-115.86-51.4-34.6-108.25-56.99-169.84-66.61-14.88-2.3-39.98-3.5-64.22-3.5h-.99c-8.52-.04-16.69.11-23.89.45h-.04c-11.51.45-21.74 1.22-29.16 2.33C332.6 104.58 236.84 161 170.22 249.01c-20.15 26.63-37.04 55.89-50.26 86.83-8.06 17.87-13.11 32.19-18.55 52.13-1.79 6.47-3.51 13.55-5.11 20.89l-.09.42a411.706 411.706 0 0 0-6.09 33.31c-2.26 15.05-3.64 28.89-3.64 38.41v6.18h106.96l-83.27 83.27c-5.1 5.09-10.1 10.09-14.96 14.94-38.81 38.73-68.79 68.33-69.17 68.33s-1.01-1.29-1.82-3.56v-.01a522.604 522.604 0 0 1-2.94-9.73c-4.78-17.5-11.58-48.27-14.33-67.25-3.57-24.12-5.5-58.19-5.31-87.26 0-.12 0-.24.01-.35.21-13.41.74-25.76 1.6-33.98 4.65-45.32 14.94-88.89 30.46-129.97a304.4 304.4 0 0 1 2.53-6.54c18.23-45.93 43.24-89.1 74.68-128.65.09-.13.19-.25.3-.38 3.76-4.68 7.62-9.3 11.57-13.85.04-.06.09-.11.14-.16 14.88-16.72 37.98-39.64 54.63-54 .53-.46 1.06-.91 1.59-1.36.32-.28.63-.55.95-.8.93-.78 1.84-1.54 2.72-2.26.07-.06.15-.12.22-.18C258.78 51.45 350.26 13.05 444.95 2.51c.17-.02.33-.03.49-.05 17.75-1.81 35.92-2.69 54.7-2.69 8.43 0 16.73.18 24.93.54.96.05 1.92.11 2.88.17 66.5 4.14 129.49 20.45 186.85 47.76.8.38 1.59.77 2.39 1.15 1.11.55 2.22 1.09 3.33 1.64.04.02.07.04.11.05 1.82.91 3.6 1.8 5.34 2.68.82.42 1.63.83 2.43 1.24.94.48 1.87.96 2.79 1.43 67.19 35.15 126.05 85.84 172.91 150.07 4.73 6.48 9.3 13.08 13.7 19.8zM998.46 513.52c0 .12 0 .23-.01.35-.21 13.54-.75 26.03-1.61 34.32-4.32 42.16-13.52 82.8-27.26 121.32-.45 1.25-.9 2.5-1.36 3.74-.53 1.46-1.07 2.91-1.62 4.35-.35.93-.7 1.85-1.06 2.78-18.38 47.63-44.03 92.34-76.53 133.19-.04.05-.08.11-.13.16-3.76 4.68-7.61 9.3-11.57 13.85-.05.05-.09.1-.14.16-14.88 16.72-37.98 39.64-54.63 54-.54.46-1.07.92-1.59 1.36-.32.27-.63.54-.95.8-.93.79-1.84 1.54-2.72 2.26-.07.06-.15.12-.22.18-75.74 61.98-167.22 100.38-261.91 110.92-.17.02-.33.04-.49.05-17.75 1.81-35.92 2.69-54.7 2.69-8.44 0-16.76-.18-24.97-.54-.95-.05-1.9-.11-2.85-.17-66.64-4.14-129.77-20.52-187.22-47.94-.96-.46-1.92-.92-2.87-1.39-.83-.4-1.65-.8-2.47-1.21-1.75-.87-3.46-1.73-5.14-2.57-.85-.43-1.7-.87-2.55-1.31-1-.51-1.99-1.02-2.97-1.53C201.72 908.2 142.87 857.51 96 793.27c-4.73-6.48-9.3-13.08-13.7-19.8l61.18-61.18 10.77 16.22c29.57 44.8 71.21 87.01 114.28 115.86 51.39 34.6 108.25 57 169.84 66.62 14.88 2.3 39.98 3.5 64.22 3.5h.94c8.2.03 16.09-.1 23.09-.42 11.87-.44 22.44-1.22 30.05-2.36 110.83-16.51 206.59-72.94 273.21-160.94 20.19-26.68 37.1-55.99 50.33-87 8.02-17.8 13.05-32.09 18.47-51.97 1.76-6.34 3.45-13.26 5.01-20.44.04-.15.07-.29.1-.44a412.9 412.9 0 0 0 6.16-33.54c.03-.17.05-.34.08-.51 2.22-14.92 3.58-28.65 3.58-38.1v-6.17H806.66l83.27-83.27c5.1-5.1 10.1-10.1 14.96-14.95 38.81-38.73 68.79-68.32 69.17-68.32.38 0 1.01 1.29 1.82 3.56v.01c1.03 3.31 2.04 6.64 3 9.98 4.79 17.54 11.53 48.1 14.27 66.99 3.56 24.03 5.48 57.92 5.31 86.92z"/>
 </symbol>

 <symbol id="icon-restore" class="icon-restore" viewBox="0 0 1000 1000" xmlns="http://www.w3.org/2000/svg">
 <path d="M919 212.1L542.9 588.2l-.1.1h-85.7V1.5h85.8v465.4l315.4-315.5z"/>
 <path d="M542.9 588.2v.1h-.1z"/>
 <path d="M1000.09 499.82c0 18.84-.88 37.07-2.69 54.88-.01.15-.03.31-.05.48-10.54 94.99-48.95 186.75-110.92 262.71-.07.08-.12.17-.19.23-.71.88-1.47 1.8-2.25 2.72-.26.34-.53.65-.8.96-.44.52-.9 1.05-1.36 1.6-11.55 13.43-28.64 31.04-43.57 45.18a496.242 496.242 0 0 1-69.91 53.83c-1.49.94-2.98 1.88-4.48 2.81-1.16.72-2.33 1.43-3.49 2.15-1.34.81-2.67 1.63-4.03 2.42-1.34.81-2.69 1.61-4.04 2.39-2.71 1.58-5.42 3.14-8.16 4.67-2.06 1.15-4.12 2.29-6.19 3.4-1.17.62-2.34 1.25-3.5 1.87-.9.47-1.81.95-2.71 1.42-.35.18-.7.37-1.05.54-.64.33-1.29.66-1.94.99-.85.44-1.7.88-2.56 1.31-1.67.84-3.39 1.7-5.15 2.57-.82.41-1.65.81-2.48 1.22-.94.46-1.91.92-2.88 1.38-35.63 16.95-73.43 29.69-112.88 37.9a520.018 520.018 0 0 1-61.1 9 540 540 0 0 1-18.3 1.19h-.05c-.41.02-.82.03-1.23.04-7.39.32-14.75.5-22.09.51-.35 0-.7.01-1.04 0-.15.01-.31 0-.46 0-1.34 0-2.68 0-4.01-.02-.91 0-1.83-.01-2.74-.03l-2.33-.03c-.14 0-.28 0-.42-.02-2.74-.05-5.48-.13-8.22-.23-1.25-.04-2.49-.09-3.72-.14-1.49-.06-2.99-.13-4.49-.21-1.61-.09-3.21-.18-4.82-.28-2.25-.13-4.5-.29-6.73-.47-1.6-.11-3.19-.25-4.78-.38-1.81-.16-3.62-.31-5.43-.5-1.75-.16-3.49-.34-5.23-.52-3.93-.43-7.86-.9-11.78-1.41-1.39-.18-2.78-.37-4.17-.56-1.72-.24-3.45-.5-5.17-.76-.96-.14-1.91-.29-2.87-.44-.64-.11-1.28-.2-1.91-.3-1.21-.2-2.4-.39-3.6-.6-2.75-.46-5.51-.95-8.26-1.45-1.42-.28-2.84-.54-4.25-.82-1.39-.27-2.77-.55-4.15-.83-1.39-.28-2.77-.57-4.15-.87-1.38-.29-2.76-.6-4.14-.9-4-.89-8-1.83-11.98-2.81-.29-.08-.57-.15-.85-.22-1.21-.31-2.42-.61-3.62-.92-1.37-.35-2.73-.71-4.09-1.08-1.37-.36-2.73-.73-4.08-1.11-1.37-.37-2.72-.75-4.07-1.14-4.07-1.17-8.12-2.39-12.16-3.66-.98-.32-1.97-.64-2.98-.96-.86-.28-1.73-.57-2.61-.85-1.85-.61-3.75-1.25-5.67-1.89-.05-.02-.08-.02-.12-.05-1.18-.39-2.35-.8-3.51-1.2-.84-.3-1.68-.58-2.51-.88-59.24-21.1-114.79-53.68-164.4-97.09-2.9-2.57-5.77-5.17-8.62-7.79-.12-.12-.24-.23-.36-.35-4.41-4.14-8.79-8.38-13.16-12.75a559.487 559.487 0 0 1-21.49-22.69c-.05-.05-.11-.11-.15-.17-1.23-1.38-2.45-2.79-3.67-4.19-2.28-2.63-4.53-5.27-6.74-7.95-.59-.7-1.17-1.41-1.75-2.12l-1.79-2.18c-.3-.38-.6-.75-.89-1.13-2.17-2.67-4.3-5.37-6.4-8.09-1.12-1.46-2.24-2.92-3.35-4.4-1.04-1.36-2.06-2.74-3.08-4.11-.16-.2-.3-.4-.45-.62-1.02-1.37-2.03-2.77-3.04-4.17-1.01-1.4-2.02-2.81-3.01-4.23-.1-.12-.19-.26-.28-.39-1.03-1.46-2.05-2.93-3.06-4.41-.78-1.12-1.55-2.25-2.31-3.39-2.3-3.39-4.55-6.82-6.77-10.28-.08-.12-.16-.24-.23-.37-.75-1.17-1.5-2.36-2.23-3.55-.14-.21-.27-.41-.4-.62-.17-.27-.34-.55-.51-.82-.85-1.37-1.69-2.74-2.52-4.11-.73-1.2-1.45-2.39-2.16-3.6-.25-.44-.51-.88-.77-1.31-.24-.39-.47-.79-.7-1.19-.57-.97-1.13-1.94-1.7-2.92-.79-1.37-1.57-2.74-2.34-4.13-.59-1.02-1.16-2.05-1.74-3.09-.35-.62-.69-1.24-1.04-1.87-.54-1-1.09-1.99-1.62-3-.14-.25-.28-.5-.41-.76-.55-1-1.09-2-1.62-3.01-.36-.69-.71-1.37-1.07-2.06-.5-.94-.99-1.89-1.49-2.84-.82-1.62-1.66-3.24-2.47-4.88a495.668 495.668 0 0 1-5.4-11.09c-.31-.65-.61-1.3-.91-1.95-.48-1.03-.95-2.05-1.42-3.09-.14-.28-.27-.57-.4-.87-.45-.99-.91-1.98-1.35-2.98-.43-.95-.86-1.91-1.28-2.88-.22-.51-.45-1.02-.67-1.52-.56-1.28-1.11-2.56-1.65-3.84-1.47-3.44-2.9-6.89-4.29-10.36-.18-.46-.37-.92-.55-1.38-.58-1.46-1.14-2.9-1.71-4.36-.55-1.41-1.09-2.84-1.63-4.28C14.41 629.73 3.79 579.88.57 527.9c-.06-.97-.13-1.92-.18-2.89-.2-4.63-.34-9.3-.43-14-.05-28.38 1.88-60.92 5.33-84.21 2.66-18.24 9.06-47.37 13.82-65.14.01-.06.02-.12.04-.17 1.28-4.38 2.61-8.75 4-13.1.01-.01.01-.03.01-.04 19.16-59.9 49.68-116.55 90.36-166.41.05-.07.12-.15.18-.23.71-.88 1.48-1.79 2.26-2.72.25-.33.52-.64.8-.96.45-.53.89-1.06 1.35-1.59 5.5-6.4 12.25-13.74 19.43-21.19 20.23-20.4 45.15-42.58 64.39-56.85 15.31-11.41 41.69-28.24 57.49-37.25 3.04-1.68 6.12-3.32 9.19-4.93v-.01c2.18-1.03 3.54-1.5 3.82-1.22.26.27.6 42.34.74 97.16v.21c.02 6.87.03 13.96.04 21.18l.18 117.94-75.85-75.86-4.33 4.32c-.02.01-.03.03-.04.05-4.99 4.99-11.13 12.2-17.65 20.58-.03.03-.06.07-.09.11a408.25 408.25 0 0 0-42.63 64.98c-.23.42-.46.86-.69 1.28-.11.23-.23.44-.34.66-4.66 8.7-8.53 16.77-12.21 25.5-.02.04-.04.09-.06.13-11.24 25.71-19.98 52.78-26.08 80.95a448.6 448.6 0 0 0-5.27 28.94c-.81 5.42-1.44 12.35-1.89 20.17-1.75 19.56-2.13 39.05-1.15 58.34 0 .12 0 .23.01.35.13 5.2.61 11.4 1.34 18.23l.03.24c.24 2.65.52 5.28.83 7.9.44 5.04.95 9.58 1.55 13.44.65 4.18 1.36 8.36 2.14 12.5.25 1.38.52 2.76.78 4.14.76 3.84 1.56 7.66 2.42 11.47.28 1.26.57 2.51.87 3.77.25 1.1.51 2.21.79 3.32.37 1.5.74 3.01 1.12 4.51.33 1.3.66 2.61 1.01 3.89 1.74 6.57 3.63 13.09 5.7 19.53.21.66.41 1.32.62 1.98.2.66.41 1.32.63 1.98.02.07.04.13.07.2.2.6.4 1.2.61 1.78.7 2.17 1.44 4.33 2.2 6.48l.28.79c.55 1.59 1.12 3.17 1.71 4.75.57 1.59 1.17 3.17 1.78 4.74.59 1.59 1.2 3.15 1.83 4.71.61 1.56 1.23 3.1 1.86 4.65.65 1.58 1.31 3.16 1.98 4.74.69 1.64 1.41 3.28 2.13 4.92.76 1.75 1.54 3.5 2.34 5.23.64 1.39 1.27 2.77 1.92 4.14.56 1.23 1.14 2.44 1.73 3.64.57 1.18 1.14 2.36 1.72 3.53.53 1.06 1.05 2.11 1.58 3.16 4.51 9.06 9.38 17.97 14.6 26.75.77 1.31 1.54 2.6 2.32 3.88.75 1.26 1.52 2.51 2.31 3.75.03.06.06.1.09.15.62 1.01 1.25 2.02 1.9 3.03.28.44.55.88.84 1.31.43.7.88 1.4 1.33 2.09.46.73.94 1.46 1.42 2.18.44.7.9 1.38 1.36 2.07.33.51.67 1.02 1.01 1.51.52.8 1.05 1.59 1.59 2.38.44.66.89 1.33 1.35 1.98.8 1.19 1.63 2.37 2.45 3.54.55.79 1.1 1.57 1.66 2.36 1.83 2.58 3.69 5.14 5.57 7.69 3.63 4.91 8.74 10.97 14.74 17.62.02.04.05.06.07.09 17.38 20.54 36.48 39.13 57.08 55.66 4.62 3.92 8.87 7.34 12.53 10.03 9.62 7.03 19.46 13.61 29.5 19.74 29.51 18.04 60.77 32.17 93.58 42.37 1.14.36 2.27.72 3.41 1.05 6.3 1.94 12.65 3.71 19.09 5.35 1.45.39 2.91.75 4.37 1.1 1.43.36 2.85.7 4.29 1.02.06.02.11.03.17.04 1.15.28 2.32.55 3.49.8.5.13 1.01.23 1.51.34.8.19 1.62.36 2.42.53.85.19 1.69.37 2.54.54.82.18 1.62.34 2.44.5.58.13 1.18.25 1.77.36.94.19 1.87.37 2.81.55.78.16 1.57.31 2.35.45 1.42.27 2.84.52 4.24.77.95.17 1.89.33 2.84.5 3.12.53 6.24 1.02 9.38 1.49 6.47.97 15.08 1.67 24.8 2.14 5.16.38 10.35.65 15.57.83 1.03.04 2.07.08 3.11.1 1.02.04 2.05.06 3.1.08 2.07.05 4.14.08 6.22.08 1.04.02 2.09.02 3.12.01 6.37.01 12.74-.13 19.1-.4.06 0 .12-.01.18-.01l.54.01c5.53 0 12.53-.47 20.37-1.3 8.71-.57 16.49-1.32 22.56-2.26 11.77-1.83 23.38-4.12 34.82-6.9 46.38-11.19 89.84-29.98 130.04-56.09 1.83-1.19 3.66-2.4 5.5-3.63 20.11-13.43 39.93-29.77 58.34-47.92a413.55 413.55 0 0 0 16.62-17.17c4.36-4.41 9.53-10.44 15.06-17.41.09-.11.17-.22.27-.34 19-23.3 35.32-48.56 48.79-75.47.26-.51.51-1 .76-1.51 1.73-3.43 3.35-6.81 4.92-10.24.04-.1.08-.2.12-.29 16.87-36.57 28.61-75.99 34.77-117.51.97-6.48 1.69-15.1 2.15-24.83 1.39-17.6 1.66-35.13.82-52.51l75.9-75.9c4.35 22.32 7.28 45.17 8.72 68.45.06.95.11 1.91.17 2.86.18 3.98.3 7.98.4 12 .03 1.69.05 3.4.08 5.1l.03 2.56c.01 1.79.03 3.59.03 5.38z"/>
 </symbol>

<symbol id="icon-options" class="icon-options" viewBox="0 0 1000 1000" xmlns="http://www.w3.org/2000/svg">
 <path d="M542.9 588.2v.1h-.1zM1000.1 786.1c0 61.6-49.9 111.5-111.5 111.5-46.4 0-86.2-28.3-103-68.7H97.4v-85.7h688.3c16.8-40.3 56.6-68.7 103-68.7 61.5.1 111.4 50 111.4 111.6zM902.5 151v85.7H214.3c-16.8 40.3-56.6 68.7-103 68.7C49.7 305.4-.2 255.5-.2 193.9S49.7 82.3 111.3 82.3c46.4 0 86.2 28.3 103 68.7h688.2zM902.5 447.1v85.7H534.2c-16.8 40.3-56.5 68.7-103 68.7-46.4 0-86.2-28.3-103-68.7h-231v-85.7h231c16.8-40.3 56.6-68.7 103-68.7s86.2 28.3 103 68.7h368.3z"/>
 </symbol>

  <symbol id="icon-config" class="icon-config" viewBox="0 0 1000 1000" xmlns="http://www.w3.org/2000/svg">
   <path d="M999.4 415.1v1c-46.8 27-93.5 54-140.3 81-.8.5-1.6 1-2.5 1.5-.3.2-.5.4-.8.6-.1.1-.2.2-.3.4-.1.1-.1.3-.2.7 1.3.8 2.6 1.6 4 2.4 11.1 6.4 22.1 12.8 33.2 19.2 33.8 19.5 67.5 39 101.3 58.5 1.6.9 3.5 1.6 4.8 3.4-.1 1.3 0 2.7-.3 4.1l-3.9 18.3c-4.2 18.9-9.2 37.5-15.5 55.9-5.6 16.5-12 32.7-19.3 48.5-7.5 16.4-15.8 32.5-25.2 47.9-7 11.5-14.2 22.7-21.4 34.1-.1.1-.3.2-.4.2-.1.1-.3.1-.5.1-1.2-.3-2.5-.5-3.7-.9-33.8-9-67.6-18.1-101.3-27.1-17.9-4.8-35.8-9.6-53.7-14.3-.8-.2-1.5-.6-2.2.5 14.3 53.4 28.5 106.9 42.9 160.6-1.2.9-2.2 1.6-3.3 2.3-8 5-15.9 10.1-24 15-46.2 28.5-95.6 49.2-148.4 61.9-9.6 2.3-19.3 4.4-28.9 6.7-1.3.3-2.9.3-3.6 1.9h-1c-10-17.3-19.9-34.6-29.9-51.9-17.2-29.8-34.4-59.5-51.6-89.2-.8-1.3-1.3-2.8-2.9-4-1 1.6-1.9 2.9-2.7 4.2-6.1 10.5-12.2 21-18.2 31.5-20.1 34.7-40.1 69.5-60.2 104.2-.9 1.5-1.5 3.2-2.9 4.2-40.2-8.9-52.4-12.1-73.8-19.1-24-7.9-47.3-17.5-69.9-29-23.2-11.8-61.2-34.8-65.2-39.2.2-.9.3-1.8.6-2.8 9.3-34.9 18.7-69.7 28-104.6 4.5-16.7 8.9-33.3 13.3-50 .3-1.2 1.1-2.4-.1-3.6-53.5 14.3-107 28.6-160.6 42.9-1-1.5-1.9-2.8-2.8-4.2-4.3-6.8-8.5-13.5-12.8-20.3-16.6-26.3-30.5-54-42-82.8-10.6-26.6-18.8-54-24.9-82-1.5-6.7-3-13.3-4.6-20.2 9.8-5.6 19.4-11.2 29.1-16.8 9.5-5.5 19.1-11 28.6-16.5 9.7-5.6 19.4-11.2 29-16.8 9.5-5.5 19.1-11 28.6-16.5 9.6-5.6 19.3-11 29.6-17.1C130 490.3 114 481 98 471.8c-16.1-9.3-32.1-18.5-48.1-27.8s-32.1-18.4-48.1-27.9c.3-1.6.6-3 .9-4.4 1.8-7.6 3.6-15.2 5.3-22.9 11.6-51.4 30.8-99.7 57.5-145.1 6.9-11.7 14.2-23.1 21.4-34.7.4-.7.9-1.3 1.5-2.1 1.4.3 2.8.5 4.2.8 29.9 8 59.8 16 89.8 24 21.4 5.7 42.9 11.5 64.3 17.2 1 .3 2.1 1 3.3-.1-.2-1-.4-2-.7-3.1-7.6-28.5-15.2-57.1-22.9-85.6-6.1-22.7-12.1-45.4-18.2-68-.4-1.4-1-2.7-.3-4.4 1.1-.7 2.3-1.5 3.5-2.2 6.8-4.3 13.5-8.5 20.3-12.8 37-23.2 76.4-41.3 118-54.5 21-6.7 42.6-11.4 64-16.2.7-.2 1.4-.6 2.1-.9h1c.1.3.1.6.2.9 16.6 28.8 33.3 57.5 49.9 86.3 10.3 17.8 20.6 35.7 30.9 53.5.8 1.3 1.2 3 3.1 3.9 5.5-9.5 11-19.1 16.5-28.6L534.2 88c5.5-9.5 11-19.1 16.5-28.6 5.6-9.7 11.1-19.4 16.8-29.1 5.5-9.5 10.9-19.1 16.7-28.7 2.1.4 3.9.6 5.8 1l21.9 5.1c45 10.2 87.7 26.3 128.3 48.1 17.9 9.6 34.9 20.6 52.1 31.4.4.2.7.6 1.3 1.2-4.6 17.8-9.5 35.6-14.3 53.5l-14.4 53.7c-4.8 17.9-9.5 35.7-14.2 53.4 1.4 1 2.4.4 3.5.1 16.7-4.5 33.3-8.9 50-13.4 34.7-9.3 69.4-18.5 104.1-27.8 1.4-.4 2.7-1 4.4-.3.7 1.1 1.5 2.2 2.3 3.5 4.3 6.9 8.7 13.8 13 20.7 10.1 16 19.1 32.5 27.3 49.5 20.4 42.4 34.5 86.9 43 133.2.4-.2.8.2 1.1.6zM378 93.5c-6.2.8-26.9 8.1-44.5 15.7-17.2 7.4-29.3 13.4-33.1 16.5.3 1.4.7 3 1.1 4.5 9.5 35.6 19 71.3 28.6 106.9 3.5 13.3 3.7 26.5 0 39.8-10.6 38.3-50.2 63.3-91.5 52.3-35.8-9.5-71.6-19.1-107.4-28.7-1.7-.4-3.3-1.1-5-1-8.7 12.8-29.6 63.4-31.9 77.2 1.2.8 2.5 1.6 3.9 2.4 13.6 7.8 27.1 15.7 40.7 23.5 18.8 10.9 37.8 21.5 56.4 32.7 23.2 14 35.6 34.9 36.6 62 .8 20.5-6.1 38.3-19.9 53.3-5.7 6.2-12.4 10.9-19.7 15.1-31.3 18-62.6 36.1-93.8 54.1-1.5.9-3 1.8-4.6 2.8 8.2 26.9 18.8 52.5 32 77.1 1-.1 1.8-.2 2.6-.4 4.9-1.3 9.9-2.7 14.8-4 32.1-8.6 64.2-17.2 96.3-25.7 9-2.4 18.2-3.1 27.6-1.8 19.4 2.5 35.6 11.1 48.1 26.1 16.6 20 21.4 42.9 14.9 67.9-9.4 35.9-19.1 71.6-28.6 107.4-.4 1.5-.7 3.1-1.1 4.8 24.7 13.2 50.3 23.8 77.2 31.9 1-1.5 1.8-2.9 2.6-4.2 5.3-9.1 10.6-18.3 15.8-27.4 13.4-23.2 26.7-46.6 40.3-69.7 21.6-36.8 68.8-47.6 104.4-25.3 10.8 6.8 19.1 15.9 25.4 26.9 18.2 31.6 36.4 63.1 54.6 94.7.9 1.6 2 3.2 2.9 4.8 14.3-2.4 68.5-25 77.4-32.3-.4-1.8-.8-3.6-1.3-5.5-9.4-35.2-18.8-70.4-28.3-105.5-3.3-12.1-3.8-24.3-1.1-36.5 7.3-32.9 36.2-58.1 72-58.7 7.6-.1 15 1.1 22.2 3 33.9 9.1 67.9 18.2 101.8 27.3 2.9.8 5.8 1.5 8.9 2.2.7-1.1 1.3-2 1.8-3 12.1-23.1 22-47.2 29.7-72.1.2-.7.3-1.5.4-2.3-2-1.2-3.7-2.2-5.5-3.3-31.5-18.2-63.2-36.3-94.6-54.7-21.4-12.5-34-31-37.2-55.7-2.8-21.4 3-40.5 16.7-57.2 5.9-7.3 13.2-12.9 21.3-17.6 31.7-18.2 63.4-36.6 95.1-54.9 1.5-.9 3.2-1.5 4.2-2.9-4.8-19.9-23.7-64.3-32.2-77-1.4.3-3 .6-4.5 1-35.8 9.6-71.6 19.1-107.4 28.7-10.3 2.8-20.8 3.4-31.3 1.7-20.1-3.3-36.3-13-48.3-29.3-13.9-18.8-18-39.9-12.5-62.7 2.3-9.5 4.9-18.8 7.5-28.3 7.3-27.5 14.7-54.9 22-82.4.3-1 .3-2.1.4-3-.5-.4-.8-.6-1-.8-23.5-12.5-47.9-22.6-73.3-30.5-.9-.3-1.8-.3-2.9-.4-1.1 1.8-2.1 3.4-3.1 5-18.3 31.7-36.4 63.5-54.9 95-13.8 23.5-34.6 36.3-61.9 37.6-20.3 1-38-5.6-53.2-19.1-6.7-5.9-11.7-13-16.1-20.7-17.9-31.2-35.9-62.3-53.9-93.4-.9-1.1-1.8-2.6-2.6-3.9z"/>
   <path d="M700.3 499.8c.3 109.6-89.5 199.5-199.7 199.5-108.3 0-199.8-87.9-199.6-200.1C301.2 388 392 299 502.4 300c111 1 198.5 91.9 197.9 199.8zM500.9 379.9c-66.1 0-119.7 53.8-119.9 119.4-.1 65.8 53.4 119.7 119.3 120 65.9.2 119.8-53.6 120.1-119.2.3-64.9-52.4-119.9-119.5-120.2z"/>
 </symbol>

 <symbol id="icon-anfasser" class="icon-anfasser" viewBox="0 0 1000 1000" xmlns="http://www.w3.org/2000/svg">
 <circle cx="342" cy="175.4" r="92.8"/>
 <circle cx="342" cy="500.5" r="92.8"/>
 <circle cx="342" cy="824.6" r="92.8"/>
 <circle cx="660" cy="175.4" r="92.8"/>
 <circle cx="660" cy="500.5" r="92.8"/>
 <circle cx="660" cy="824.6" r="92.8"/>
 </symbol>

</svg>