
<svg display="none" xmlns="http://www.w3.org/2000/svg">
 <symbol id="icon-logo_test" class="icon-logo_test" viewBox="0 0 1000 1000" xmlns="http://www.w3.org/2000/svg">
 <path class="amybackuplogo_cl1" d="M673 457.5c-3.2-3.5-10.4-7.1-18.2-9.2-5.8-1.6-18.2-1.7-149.3-1.9-78.6-.1-145.9.2-149.5.6-12.4 1.5-22.1 5.3-27 10.5l-2.5 2.7v118.6l2.5 2.7c3.4 3.6 10.5 7.1 18.7 9.3 6.3 1.6 17.4 1.7 153.3 1.7s147-.1 153.3-1.7c8.2-2.2 15.3-5.7 18.7-9.3l2.5-2.7V460.2l-2.5-2.7zM636 553H366v-67h270v67z" />
 <path class="amybackuplogo_cl1" d="M846.1 533.5c-10.2 99.5-59.4 186.8-138.9 246.3-18.1 13.5-31.6 21.7-53.7 32.7C604 837 555.8 848.2 500 848.2S396 837 346.5 812.5c-22.1-11-35.6-19.2-53.7-32.7-29.9-22.5-54.1-47.1-76-77.6l-8.1-11.4 43-43 7.5 11.3c20.6 31.2 49.6 60.6 79.6 80.7 35.8 24.1 75.4 39.7 118.3 46.4 19.4 3 63.7 3.3 82.4.5 77.2-11.5 143.9-50.8 190.3-112.1 31.8-42 51.9-93.4 57.2-146.5 1.3-13.3 1.3-42.9 0-56.2-5.6-55.8-27.5-109.6-62.5-153.4-10.3-13-31.2-33.9-44.5-44.5-39.9-31.8-85.3-51.8-136.5-60.1-16.8-2.7-52.1-3.7-70.1-2-67.7 6.4-128.5 35.1-176.9 83.6-23.4 23.4-39.9 46.3-54.5 76-9.9 20.1-14.5 31.7-19.6 50.4-5.7 20.6-10.4 50.1-10.4 64.8v4.3h74.5l-58 58c-31.9 31.9-58.3 58-58.6 58-1.7 0-10.5-36.8-13.3-56.1-3.6-24.3-4.8-63.1-2.6-84.9 7.1-70.4 34.3-135.3 79.4-189.9 10.7-12.8 32.6-34.6 45.7-45.3 68.1-55.8 154.5-84.2 240.4-78.8 106.1 6.6 199.4 57.7 262 143.5 35.8 49 58.2 108.3 64.6 171 1.6 15.4 1.6 51.6 0 67z" />
 <path class="amybackuplogo_cl1" d="M617 528c-3.7 7.3-10.1 11.3-18 11.3s-14.3-4-18-11.3c-1.8-3.5-1.7-12.9.3-16.6 2.1-4.1 8-9.2 11.5-10 1.5-.3 3.2-.7 3.7-.9 1.5-.6 8.7.6 11 1.7 3.1 1.6 7.5 6 9.3 9.3 1.9 3.6 2 13.1.2 16.5z" />
 </symbol>
</svg>