<?xml version="1.0" encoding="utf-8"?>
<!-- Logo by EmptySoul-->
<svg version="1.1" id="mybackuplogo-nobg" xmlns="http://www.w3.org/2000/svg" xmlns:xlink="http://www.w3.org/1999/xlink" x="0px" y="0px"
	 viewBox="0 0 1000 1000" xml:space="preserve">
<style type="text/css">
	.mybackuplogo_cl0{display:none;fill:#111119;}
	.mybackuplogo_cl1{fill:#28B28D;}
</style>
<g transform="translate(0.000000,1000.000000) scale(0.100000,-0.100000)">
	<path class="mybackuplogo_cl0" d="M8893,498.5H1107c-331.4,0-600,268.6-600,600v7786c0,331.4,268.6,600,600,600h7786c331.4,0,600-268.6,600-600
		v-7786C9493,767.1,9224.4,498.5,8893,498.5z"/>
	<path class="mybackuplogo_cl1" d="M6730,5425c-32,35-104,71-182,92c-58,16-182,17-1493,19c-786,1-1459-2-1495-6c-124-15-221-53-270-105l-25-27
		V4212l25-27c34-36,105-71,187-93c63-16,174-17,1533-17s1470,1,1533,17c82,22,153,57,187,93l25,27v1186L6730,5425z M6360,4470H3660
		v670h2700V4470z"/>
	<path class="mybackuplogo_cl1" d="M8461,4665c-102-995-594-1868-1389-2463c-181-135-316-217-537-327c-495-245-977-357-1535-357
		s-1040,112-1535,357c-221,110-356,192-537,327c-299,225-541,471-760,776l-81,114l430,430l75-113c206-312,496-606,796-807
		c358-241,754-397,1183-464c194-30,637-33,824-5c772,115,1439,508,1903,1121c318,420,519,934,572,1465c13,133,13,429,0,562
		c-56,558-275,1096-625,1534c-103,130-312,339-445,445c-399,318-853,518-1365,601c-168,27-521,37-701,20c-677-64-1285-351-1769-836
		c-234-234-399-463-545-760c-99-201-145-317-196-504c-57-206-104-501-104-648v-43h745l-580-580c-319-319-583-580-586-580
		c-17,0-105,368-133,561c-36,243-48,631-26,849c71,704,343,1353,794,1899c107,128,326,346,457,453c681,558,1545,842,2404,788
		c1061-66,1994-577,2620-1435c358-490,582-1083,646-1710C8477,5181,8477,4819,8461,4665z"/>
	<path class="mybackuplogo_cl1" d="M6170,4720c-37-73-101-113-180-113s-143,40-180,113c-18,35-17,129,3,166c21,41,80,92,115,100c15,3,32,7,37,9
		c15,6,87-6,110-17c31-16,75-60,93-93C6187,4849,6188,4754,6170,4720z"/>
</g>
</svg>
