<?xml version="1.0" encoding="utf-8"?>
<!-- Generator: Adobe Illustrator 25.0.0, SVG Export Plug-In . SVG Version: 6.00 Build 0)  -->
<svg version="1.1" id="Ebene_1" xmlns="http://www.w3.org/2000/svg" xmlns:xlink="http://www.w3.org/1999/xlink" x="0px" y="0px"
	 viewBox="0 0 1200 1200" style="enable-background:new 0 0 1200 1200;" xml:space="preserve">
<circle cx="598.4" cy="943.1" r="49"/>
<circle cx="355.2" cy="841.2" r="49"/>
<circle cx="840.9" cy="845.1" r="49"/>
<circle cx="950.9" cy="593.6" r="49"/>
<circle cx="251.2" cy="595.6" r="49"/>
<g>
	<path d="M1018.3,174.6c-50.5-50.5-108.6-90.8-171.6-119.8c-31-14.3-63.2-25.8-96.3-34.4c-0.1,1.3-0.2,2.6-0.2,4
		c-2.4,33.9-12.5,65.3-28,91.5c-27.7,46.8-72.9,77.3-123.8,77.3c-50.8,0-95.8-30.3-123.5-76.9c-15.5-26-25.6-57.2-28.2-90.9
		c-0.1-1.5-0.2-3-0.3-4.5c-33.1,8.8-65.2,20.4-96.2,34.8c-62.3,28.9-119.7,68.9-169.7,118.9C68.6,286.5,7,435.3,7,593.6
		s61.6,307,173.5,418.9C292.4,1124.4,441.2,1186,599.4,1186c15.9,0,31.6-0.6,47.2-1.9c2.2-0.2,4.5-0.4,6.7-0.6c0.1,0,0.1,0,0.2,0
		c4.9-0.4,9.7-0.9,14.6-1.5c0.2,0,0.5-0.1,0.7-0.1c1.9-0.2,3.8-0.5,5.7-0.7c0.9-0.1,1.8-0.2,2.8-0.4c1.8-0.2,3.7-0.5,5.5-0.7
		c0.2,0,0.3,0,0.5-0.1c2.3-0.3,4.6-0.7,6.9-1c0.1,0,0.3,0,0.4-0.1c2.4-0.4,4.7-0.7,7.1-1.1c2.4-0.4,4.8-0.8,7.3-1.3
		c2.4-0.4,4.8-0.9,7.3-1.4c2.4-0.5,4.8-0.9,7.2-1.4c2.4-0.5,4.8-1,7.2-1.5c4-0.9,8-1.8,12.1-2.8c0.4-0.1,0.7-0.2,1.1-0.3
		c3.8-0.9,7.7-1.9,11.5-2.9c0,0,0,0,0.1,0c2.5-0.7,5-1.4,7.5-2c1.4-0.4,2.8-0.8,4.3-1.2c3.9-1.1,7.8-2.3,11.7-3.5
		c2.2-0.7,4.5-1.4,6.7-2.1c1.5-0.5,3-1,4.5-1.5c86.6-28.6,165.9-77.2,232.3-143.6c111.9-111.9,173.5-260.7,173.5-418.9
		S1130.3,286.5,1018.3,174.6z M599.4,1086.7c-271.9,0-493.1-221.2-493.1-493.1c0-193.5,112-361.3,274.5-442
		c10.2,19.7,22.6,38.2,37,55c47.8,55.5,111.9,86,180.5,86c68.7,0,132.8-30.6,180.5-86c14.6-17,27.2-35.7,37.4-55.8
		c163.5,80.4,276.2,248.7,276.2,442.8C1092.6,865.5,871.3,1086.7,599.4,1086.7z"/>
</g>
</svg>
